<svg width="25" height="26" viewBox="0 0 25 26" fill="none" xmlns="http://www.w3.org/2000/svg">
<path d="M12.5 0.5C9.0625 0.5 6.25 4 6.25 8.3125C6.25 12.625 9.0625 16.125 12.5 16.125C15.9375 16.125 18.75 12.625 18.75 8.3125C18.75 4 15.9375 0.5 12.5 0.5ZM7.75154 17.7154C6.50711 16.8528 5.03206 16.0553 3.6552 16.6853C1.50182 17.6705 0 19.8373 0 22.375C0 24.1009 1.39911 25.5 3.125 25.5H21.875C23.6009 25.5 25 24.1009 25 22.375C25 19.8322 23.5099 17.6619 21.3451 16.6794C19.967 16.054 18.4932 16.8523 17.2496 17.7146C15.8546 18.6818 14.2283 19.25 12.5 19.25C10.7722 19.25 9.1463 18.6821 7.75154 17.7154Z" fill="#C4C4C4"/>
</svg>
