<svg width="331" height="31" viewBox="0 0 331 31" fill="none" xmlns="http://www.w3.org/2000/svg">
<path d="M205.51 13.991L206.479 13.396H214.707V13.991H205.51ZM205.51 13.991V13.481L211.936 5.61H213.262V16.235L213.432 16.405H214.367V17H209.522V16.405H210.457L210.627 16.235V8.33H210.576L206.479 13.311V13.396L205.51 13.991ZM221.097 17.17C220.474 17.17 219.879 17.068 219.312 16.864C218.757 16.66 218.264 16.3427 217.833 15.912C217.414 15.4813 217.079 14.926 216.83 14.246C216.592 13.5547 216.473 12.7217 216.473 11.747C216.473 10.3303 216.688 9.15733 217.119 8.228C217.561 7.29867 218.167 6.60167 218.938 6.137C219.72 5.67233 220.621 5.44 221.641 5.44C222.423 5.44 223.069 5.58167 223.579 5.865C224.1 6.14833 224.491 6.49967 224.752 6.919C225.013 7.33833 225.143 7.74633 225.143 8.143C225.143 8.551 225.007 8.891 224.735 9.163C224.463 9.42367 224.14 9.554 223.766 9.554C223.392 9.554 223.075 9.42367 222.814 9.163C222.553 8.891 222.423 8.57367 222.423 8.211C222.423 7.84833 222.542 7.548 222.78 7.31C223.018 7.072 223.313 6.94167 223.664 6.919C223.505 6.72633 223.256 6.545 222.916 6.375C222.576 6.205 222.202 6.12 221.794 6.12C220.876 6.12 220.224 6.579 219.839 7.497C219.465 8.415 219.278 9.826 219.278 11.73C219.278 12.8633 219.357 13.7813 219.516 14.484C219.686 15.1867 219.913 15.6967 220.196 16.014C220.479 16.3313 220.797 16.49 221.148 16.49C221.579 16.49 221.953 16.252 222.27 15.776C222.599 15.3 222.763 14.603 222.763 13.685C222.763 12.7557 222.599 12.0643 222.27 11.611C221.953 11.1463 221.59 10.914 221.182 10.914C220.876 10.914 220.536 11.0557 220.162 11.339C219.799 11.611 219.448 12.1097 219.108 12.835V11.645C219.369 11.1123 219.714 10.7327 220.145 10.506C220.587 10.268 221.12 10.149 221.743 10.149C222.174 10.149 222.604 10.2113 223.035 10.336C223.477 10.4493 223.879 10.6363 224.242 10.897C224.616 11.1577 224.916 11.4977 225.143 11.917C225.37 12.3363 225.483 12.8407 225.483 13.43C225.483 14.212 225.279 14.8863 224.871 15.453C224.463 16.0083 223.925 16.4333 223.256 16.728C222.599 17.0227 221.879 17.17 221.097 17.17ZM228.205 17.17C227.82 17.17 227.48 17.0283 227.185 16.745C226.902 16.4503 226.76 16.1103 226.76 15.725C226.76 15.3283 226.902 14.9883 227.185 14.705C227.48 14.4217 227.82 14.28 228.205 14.28C228.602 14.28 228.942 14.4217 229.225 14.705C229.508 14.9883 229.65 15.3283 229.65 15.725C229.65 16.1103 229.508 16.4503 229.225 16.745C228.942 17.0283 228.602 17.17 228.205 17.17ZM234.707 17.17C233.834 17.17 233.115 17.0397 232.548 16.779C231.993 16.507 231.579 16.167 231.307 15.759C231.046 15.3397 230.916 14.909 230.916 14.467L232.361 15.674C232.622 15.9573 232.95 16.167 233.347 16.303C233.744 16.4277 234.118 16.49 234.469 16.49C235.24 16.49 235.801 16.2237 236.152 15.691C236.515 15.147 236.696 14.4103 236.696 13.481C236.696 12.597 236.526 11.8717 236.186 11.305C235.857 10.727 235.291 10.438 234.486 10.438C234.157 10.438 233.772 10.5117 233.33 10.659C232.888 10.8063 232.452 11.1123 232.021 11.577L231.511 11.441L232.004 5.61H238.957V7.82H232.514L232.276 10.506C232.537 10.3133 232.877 10.1433 233.296 9.996C233.715 9.83733 234.282 9.758 234.996 9.758C235.982 9.758 236.809 9.91667 237.478 10.234C238.147 10.54 238.651 10.9593 238.991 11.492C239.331 12.0247 239.501 12.6367 239.501 13.328C239.501 14.11 239.286 14.79 238.855 15.368C238.436 15.946 237.863 16.3937 237.138 16.711C236.424 17.017 235.614 17.17 234.707 17.17ZM232.361 15.674L230.916 14.467C230.916 14.0477 231.052 13.7077 231.324 13.447C231.596 13.175 231.913 13.039 232.276 13.039C232.661 13.039 232.984 13.1693 233.245 13.43C233.506 13.6907 233.636 14.0137 233.636 14.399C233.636 14.7503 233.523 15.0507 233.296 15.3C233.069 15.5493 232.758 15.674 232.361 15.674ZM244.968 17.17C244.186 17.17 243.535 17.034 243.013 16.762C242.503 16.49 242.118 16.1557 241.857 15.759C241.597 15.351 241.466 14.9487 241.466 14.552C241.466 14.144 241.602 13.8097 241.874 13.549C242.146 13.277 242.469 13.141 242.843 13.141C243.217 13.141 243.535 13.277 243.795 13.549C244.056 13.8097 244.186 14.1213 244.186 14.484C244.186 14.8467 244.067 15.147 243.829 15.385C243.591 15.623 243.297 15.7533 242.945 15.776C243.104 15.9687 243.353 16.1387 243.693 16.286C244.033 16.422 244.407 16.49 244.815 16.49C245.427 16.49 245.915 16.286 246.277 15.878C246.651 15.4587 246.918 14.824 247.076 13.974C247.246 13.124 247.331 12.036 247.331 10.71C247.331 9.56533 247.246 8.65867 247.076 7.99C246.918 7.32133 246.697 6.84533 246.413 6.562C246.141 6.26733 245.824 6.12 245.461 6.12C245.031 6.12 244.651 6.358 244.322 6.834C244.005 7.31 243.846 8.007 243.846 8.925C243.846 9.85433 244.005 10.5513 244.322 11.016C244.651 11.4693 245.019 11.696 245.427 11.696C245.733 11.696 246.068 11.56 246.43 11.288C246.804 11.0047 247.161 10.5003 247.501 9.775V10.965C247.241 11.4863 246.889 11.866 246.447 12.104C246.017 12.342 245.49 12.461 244.866 12.461C244.436 12.461 243.999 12.4043 243.557 12.291C243.127 12.1663 242.724 11.9737 242.35 11.713C241.988 11.4523 241.693 11.1123 241.466 10.693C241.24 10.2737 241.126 9.76933 241.126 9.18C241.126 8.38667 241.325 7.71233 241.721 7.157C242.129 6.60167 242.668 6.17667 243.336 5.882C244.005 5.58733 244.73 5.44 245.512 5.44C246.147 5.44 246.742 5.53633 247.297 5.729C247.853 5.91033 248.34 6.205 248.759 6.613C249.19 7.021 249.524 7.55933 249.762 8.228C250.012 8.89667 250.136 9.71833 250.136 10.693C250.136 12.155 249.915 13.3677 249.473 14.331C249.043 15.283 248.442 15.997 247.671 16.473C246.901 16.9377 246 17.17 244.968 17.17ZM255.833 17.17C255.051 17.17 254.354 17.068 253.742 16.864C253.13 16.6487 252.649 16.354 252.297 15.98C251.957 15.5947 251.787 15.147 251.787 14.637L253.232 15.844C253.516 16.0367 253.822 16.1953 254.15 16.32C254.49 16.4333 254.859 16.49 255.255 16.49C256.026 16.49 256.621 16.2803 257.04 15.861C257.471 15.4303 257.686 14.8013 257.686 13.974C257.686 13.5547 257.613 13.1467 257.465 12.75C257.318 12.342 257.046 12.0077 256.649 11.747C256.264 11.4863 255.703 11.356 254.966 11.356V10.931C255.85 10.931 256.632 10.999 257.312 11.135C258.004 11.2597 258.582 11.4523 259.046 11.713C259.522 11.9623 259.879 12.2797 260.117 12.665C260.367 13.0503 260.491 13.498 260.491 14.008C260.491 14.5633 260.361 15.0393 260.1 15.436C259.84 15.8327 259.488 16.1613 259.046 16.422C258.604 16.6713 258.106 16.8583 257.55 16.983C256.995 17.1077 256.423 17.17 255.833 17.17ZM253.232 15.844L251.787 14.637C251.787 14.2177 251.923 13.8777 252.195 13.617C252.467 13.345 252.785 13.209 253.147 13.209C253.533 13.209 253.856 13.3393 254.116 13.6C254.377 13.8607 254.507 14.1837 254.507 14.569C254.507 14.9203 254.394 15.2207 254.167 15.47C253.941 15.7193 253.629 15.844 253.232 15.844ZM253.266 9.996C252.904 9.996 252.586 9.86567 252.314 9.605C252.042 9.333 251.906 8.98733 251.906 8.568L253.062 7.361C253.414 7.30433 253.703 7.33833 253.929 7.463C254.156 7.57633 254.326 7.74067 254.439 7.956C254.564 8.17133 254.626 8.398 254.626 8.636C254.626 9.02133 254.496 9.34433 254.235 9.605C253.975 9.86567 253.652 9.996 253.266 9.996ZM254.966 11.169V10.761C255.476 10.761 255.884 10.6873 256.19 10.54C256.508 10.3813 256.751 10.183 256.921 9.945C257.091 9.69567 257.205 9.42933 257.261 9.146C257.318 8.86267 257.346 8.59633 257.346 8.347C257.346 7.67833 257.188 7.14 256.87 6.732C256.564 6.324 256.077 6.12 255.408 6.12C254.932 6.12 254.485 6.22767 254.065 6.443C253.657 6.65833 253.323 6.96433 253.062 7.361L251.906 8.568C251.906 8.058 252.059 7.565 252.365 7.089C252.683 6.60167 253.142 6.205 253.742 5.899C254.354 5.593 255.108 5.44 256.003 5.44C256.423 5.44 256.865 5.48533 257.329 5.576C257.805 5.66667 258.247 5.814 258.655 6.018C259.075 6.222 259.415 6.49967 259.675 6.851C259.936 7.191 260.066 7.62167 260.066 8.143C260.066 8.619 259.942 9.03833 259.692 9.401C259.454 9.76367 259.109 10.0697 258.655 10.319C258.213 10.557 257.681 10.7497 257.057 10.897C256.434 11.033 255.737 11.1237 254.966 11.169ZM267.165 6.205V5.61H272.01V6.205H271.075L270.922 6.358V13.668C270.922 14.3707 270.803 14.9487 270.565 15.402C270.338 15.8553 270.038 16.2123 269.664 16.473C269.301 16.7337 268.904 16.915 268.474 17.017C268.054 17.119 267.652 17.17 267.267 17.17C266.711 17.17 266.252 17.0793 265.89 16.898C265.538 16.7167 265.278 16.4843 265.108 16.201C264.938 15.9177 264.853 15.6287 264.853 15.334C264.853 14.9033 264.972 14.5633 265.21 14.314C265.459 14.0647 265.765 13.94 266.128 13.94C266.49 13.94 266.791 14.0647 267.029 14.314C267.278 14.552 267.403 14.8523 267.403 15.215C267.403 15.4643 267.335 15.691 267.199 15.895C267.074 16.0877 266.91 16.2407 266.706 16.354C266.502 16.456 266.275 16.5013 266.026 16.49L266.213 16.048C266.303 16.2293 266.422 16.3653 266.57 16.456C266.717 16.5353 266.893 16.575 267.097 16.575C267.425 16.575 267.703 16.4333 267.93 16.15C268.168 15.8553 268.287 15.3453 268.287 14.62L268.27 6.375L268.1 6.205H267.165ZM281.583 16.235L281.753 16.405H282.603V17C282.308 17 281.968 17 281.583 17C281.209 17.0113 280.835 17.0283 280.461 17.051C280.087 17.0737 279.753 17.1133 279.458 17.17L279.288 17V15.555H279.118C278.801 16.0423 278.404 16.4333 277.928 16.728C277.463 17.0227 276.851 17.17 276.092 17.17C275.469 17.17 274.97 17.0737 274.596 16.881C274.233 16.677 273.973 16.4107 273.814 16.082C273.667 15.742 273.593 15.368 273.593 14.96V9.605L273.423 9.435H272.573V8.84C272.868 8.84 273.219 8.84 273.627 8.84C274.035 8.82867 274.437 8.81167 274.834 8.789C275.242 8.755 275.593 8.71533 275.888 8.67L276.058 8.84V14.79C276.058 15.334 276.126 15.7137 276.262 15.929C276.398 16.133 276.625 16.235 276.942 16.235C277.305 16.235 277.645 16.1047 277.962 15.844C278.279 15.5833 278.665 15.1187 279.118 14.45V9.605L278.948 9.435H278.098V8.84C278.393 8.84 278.744 8.84 279.152 8.84C279.56 8.82867 279.962 8.81167 280.359 8.789C280.767 8.755 281.118 8.71533 281.413 8.67L281.583 8.84V16.235ZM287.652 8.67C288.354 8.67 289 8.772 289.59 8.976C290.19 9.16867 290.672 9.469 291.035 9.877C291.409 10.2737 291.596 10.778 291.596 11.39C291.596 12.002 291.409 12.512 291.035 12.92C290.672 13.3167 290.19 13.617 289.59 13.821C289 14.0137 288.354 14.11 287.652 14.11C286.96 14.11 286.32 14.0137 285.731 13.821C285.141 13.617 284.665 13.3167 284.303 12.92C283.951 12.512 283.776 12.002 283.776 11.39C283.776 10.778 283.951 10.2737 284.303 9.877C284.665 9.469 285.141 9.16867 285.731 8.976C286.32 8.772 286.96 8.67 287.652 8.67ZM287.72 13.515C288.06 13.515 288.366 13.3563 288.638 13.039C288.91 12.7217 289.046 12.1947 289.046 11.458C289.046 10.914 288.966 10.4833 288.808 10.166C288.66 9.84867 288.473 9.622 288.247 9.486C288.031 9.33867 287.81 9.265 287.584 9.265C287.221 9.265 286.921 9.435 286.683 9.775C286.445 10.1037 286.326 10.6137 286.326 11.305C286.326 11.8377 286.394 12.2683 286.53 12.597C286.666 12.9257 286.841 13.1637 287.057 13.311C287.272 13.447 287.493 13.515 287.72 13.515ZM285.816 14.637C285.816 14.8977 285.935 15.0903 286.173 15.215C286.411 15.3397 286.728 15.4303 287.125 15.487C287.521 15.5323 287.952 15.5777 288.417 15.623C288.893 15.657 289.363 15.7137 289.828 15.793C290.304 15.8723 290.74 15.997 291.137 16.167C291.533 16.337 291.851 16.5863 292.089 16.915C292.327 17.2323 292.446 17.6573 292.446 18.19C292.446 19.1193 292.038 19.89 291.222 20.502C290.406 21.114 289.187 21.42 287.567 21.42C286.989 21.42 286.456 21.3747 285.969 21.284C285.493 21.2047 285.079 21.0687 284.728 20.876C284.376 20.6947 284.099 20.4623 283.895 20.179C283.702 19.8957 283.606 19.5557 283.606 19.159C283.606 18.649 283.787 18.224 284.15 17.884C284.512 17.544 285.09 17.3173 285.884 17.204L286.139 17.357C285.946 17.595 285.816 17.8387 285.748 18.088C285.68 18.3373 285.646 18.5923 285.646 18.853C285.646 19.4423 285.821 19.9183 286.173 20.281C286.535 20.6437 287.091 20.825 287.839 20.825C288.303 20.825 288.711 20.7513 289.063 20.604C289.425 20.468 289.709 20.2753 289.913 20.026C290.128 19.788 290.236 19.516 290.236 19.21C290.236 18.87 290.122 18.6093 289.896 18.428C289.669 18.258 289.369 18.1277 288.995 18.037C288.621 17.9577 288.207 17.8897 287.754 17.833C287.312 17.7877 286.864 17.731 286.411 17.663C285.969 17.595 285.561 17.4873 285.187 17.34C284.813 17.204 284.512 17 284.286 16.728C284.059 16.456 283.946 16.0877 283.946 15.623C283.946 14.9997 284.144 14.535 284.541 14.229C284.937 13.923 285.425 13.6793 286.003 13.498L286.241 13.804C286.071 13.906 285.957 14.042 285.901 14.212C285.844 14.3707 285.816 14.5123 285.816 14.637ZM289.386 8.976C289.658 8.51133 289.964 8.109 290.304 7.769C290.644 7.41767 291.052 7.242 291.528 7.242C291.924 7.242 292.202 7.35533 292.361 7.582C292.531 7.80867 292.616 8.02967 292.616 8.245C292.616 8.49433 292.531 8.71533 292.361 8.908C292.202 9.08933 291.975 9.18 291.681 9.18C291.386 9.18 291.154 9.08933 290.984 8.908C290.825 8.71533 290.746 8.49433 290.746 8.245C290.746 8.15433 290.797 8.05233 290.899 7.939C291.012 7.82567 291.103 7.735 291.171 7.667L291.154 8.126C290.972 8.18267 290.768 8.30733 290.542 8.5C290.315 8.69267 290.1 8.97033 289.896 9.333L289.386 8.976ZM300.321 17.17C299.936 17.17 299.602 17.1077 299.318 16.983C299.046 16.8583 298.808 16.6373 298.604 16.32V11.815C298.604 11.101 298.485 10.5287 298.247 10.098C298.021 9.656 297.567 9.435 296.887 9.435C296.638 9.435 296.406 9.46333 296.19 9.52C295.975 9.56533 295.76 9.639 295.544 9.741C295.726 9.85433 295.867 10.0017 295.969 10.183C296.083 10.3643 296.139 10.5683 296.139 10.795C296.139 11.135 296.026 11.4183 295.799 11.645C295.573 11.8717 295.289 11.985 294.949 11.985C294.609 11.985 294.326 11.8717 294.099 11.645C293.873 11.407 293.759 11.0953 293.759 10.71C293.759 10.3473 293.878 10.0413 294.116 9.792C294.366 9.53133 294.689 9.32167 295.085 9.163C295.482 8.993 295.907 8.86833 296.36 8.789C296.825 8.70967 297.267 8.67 297.686 8.67C298.264 8.67 298.808 8.755 299.318 8.925C299.84 9.095 300.259 9.38967 300.576 9.809C300.905 10.217 301.069 10.8007 301.069 11.56V15.232C301.069 15.3907 301.109 15.5437 301.188 15.691C301.268 15.827 301.398 15.895 301.579 15.895C301.704 15.895 301.817 15.861 301.919 15.793C302.033 15.7137 302.135 15.6173 302.225 15.504L302.684 15.895C302.548 16.0877 302.384 16.286 302.191 16.49C302.01 16.6827 301.772 16.847 301.477 16.983C301.183 17.1077 300.797 17.17 300.321 17.17ZM296.309 17.17C295.414 17.17 294.677 16.9547 294.099 16.524C293.533 16.0933 293.249 15.5153 293.249 14.79C293.249 14.076 293.533 13.5037 294.099 13.073C294.666 12.631 295.403 12.41 296.309 12.41C296.944 12.41 297.437 12.5063 297.788 12.699C298.151 12.8803 298.423 13.0673 298.604 13.26V14.076C298.366 13.7927 298.106 13.583 297.822 13.447C297.539 13.2997 297.256 13.226 296.972 13.226C296.553 13.226 296.236 13.3733 296.02 13.668C295.816 13.9513 295.714 14.3253 295.714 14.79C295.714 15.2433 295.816 15.6173 296.02 15.912C296.236 16.2067 296.553 16.354 296.972 16.354C297.256 16.354 297.539 16.286 297.822 16.15C298.106 16.0027 298.366 15.7873 298.604 15.504V16.32C298.423 16.5127 298.151 16.7053 297.788 16.898C297.437 17.0793 296.944 17.17 296.309 17.17ZM311.785 16.235L311.955 16.405H312.805V17C312.51 17 312.159 17 311.751 17C311.354 17.0113 310.952 17.0283 310.544 17.051C310.136 17.0737 309.784 17.1133 309.49 17.17L309.32 17V15.64C309.104 16.0367 308.776 16.3937 308.334 16.711C307.892 17.017 307.376 17.17 306.787 17.17C306.05 17.17 305.398 17 304.832 16.66C304.265 16.32 303.823 15.8383 303.506 15.215C303.188 14.5803 303.03 13.8267 303.03 12.954C303.03 12.0813 303.188 11.3277 303.506 10.693C303.823 10.047 304.265 9.54833 304.832 9.197C305.398 8.84567 306.05 8.67 306.787 8.67C307.421 8.67 307.948 8.81733 308.368 9.112C308.787 9.39533 309.104 9.758 309.32 10.2V5.355L309.15 5.185H308.3V4.59C308.594 4.59 308.946 4.59 309.354 4.59C309.762 4.57867 310.164 4.56167 310.561 4.539C310.969 4.505 311.32 4.46533 311.615 4.42L311.785 4.59V16.235ZM309.32 14.365V11.475C309.002 10.7497 308.668 10.2567 308.317 9.996C307.977 9.73533 307.659 9.605 307.365 9.605C306.889 9.605 306.498 9.85433 306.192 10.353C305.897 10.8403 305.75 11.6393 305.75 12.75C305.75 13.8607 305.897 14.722 306.192 15.334C306.498 15.9347 306.889 16.235 307.365 16.235C307.659 16.235 307.977 16.1047 308.317 15.844C308.668 15.5833 309.002 15.0903 309.32 14.365ZM320.791 17.17C320.406 17.17 320.071 17.1077 319.788 16.983C319.516 16.8583 319.278 16.6373 319.074 16.32V11.815C319.074 11.101 318.955 10.5287 318.717 10.098C318.49 9.656 318.037 9.435 317.357 9.435C317.108 9.435 316.875 9.46333 316.66 9.52C316.445 9.56533 316.229 9.639 316.014 9.741C316.195 9.85433 316.337 10.0017 316.439 10.183C316.552 10.3643 316.609 10.5683 316.609 10.795C316.609 11.135 316.496 11.4183 316.269 11.645C316.042 11.8717 315.759 11.985 315.419 11.985C315.079 11.985 314.796 11.8717 314.569 11.645C314.342 11.407 314.229 11.0953 314.229 10.71C314.229 10.3473 314.348 10.0413 314.586 9.792C314.835 9.53133 315.158 9.32167 315.555 9.163C315.952 8.993 316.377 8.86833 316.83 8.789C317.295 8.70967 317.737 8.67 318.156 8.67C318.734 8.67 319.278 8.755 319.788 8.925C320.309 9.095 320.729 9.38967 321.046 9.809C321.375 10.217 321.539 10.8007 321.539 11.56V15.232C321.539 15.3907 321.579 15.5437 321.658 15.691C321.737 15.827 321.868 15.895 322.049 15.895C322.174 15.895 322.287 15.861 322.389 15.793C322.502 15.7137 322.604 15.6173 322.695 15.504L323.154 15.895C323.018 16.0877 322.854 16.286 322.661 16.49C322.48 16.6827 322.242 16.847 321.947 16.983C321.652 17.1077 321.267 17.17 320.791 17.17ZM316.779 17.17C315.884 17.17 315.147 16.9547 314.569 16.524C314.002 16.0933 313.719 15.5153 313.719 14.79C313.719 14.076 314.002 13.5037 314.569 13.073C315.136 12.631 315.872 12.41 316.779 12.41C317.414 12.41 317.907 12.5063 318.258 12.699C318.621 12.8803 318.893 13.0673 319.074 13.26V14.076C318.836 13.7927 318.575 13.583 318.292 13.447C318.009 13.2997 317.725 13.226 317.442 13.226C317.023 13.226 316.705 13.3733 316.49 13.668C316.286 13.9513 316.184 14.3253 316.184 14.79C316.184 15.2433 316.286 15.6173 316.49 15.912C316.705 16.2067 317.023 16.354 317.442 16.354C317.725 16.354 318.009 16.286 318.292 16.15C318.575 16.0027 318.836 15.7873 319.074 15.504V16.32C318.893 16.5127 318.621 16.7053 318.258 16.898C317.907 17.0793 317.414 17.17 316.779 17.17ZM325.641 10.234C325.641 10.54 325.755 10.7893 325.981 10.982C326.208 11.1633 326.503 11.3277 326.865 11.475C327.228 11.611 327.613 11.7527 328.021 11.9C328.429 12.036 328.815 12.2117 329.177 12.427C329.54 12.631 329.835 12.8973 330.061 13.226C330.288 13.5547 330.401 13.974 330.401 14.484C330.401 15.0507 330.254 15.538 329.959 15.946C329.676 16.3427 329.291 16.6487 328.803 16.864C328.327 17.068 327.8 17.17 327.222 17.17C326.769 17.17 326.333 17.1133 325.913 17C325.505 16.8867 325.165 16.7733 324.893 16.66L324.723 17H324.077C324.009 16.558 323.913 16.065 323.788 15.521C323.675 14.9657 323.539 14.467 323.38 14.025L323.941 13.855C324.349 14.5463 324.752 15.0903 325.148 15.487C325.545 15.8837 325.925 16.167 326.287 16.337C326.65 16.4957 326.984 16.575 327.29 16.575C327.653 16.575 327.965 16.49 328.225 16.32C328.486 16.1387 328.616 15.895 328.616 15.589C328.616 15.2943 328.497 15.0563 328.259 14.875C328.021 14.6823 327.715 14.518 327.341 14.382C326.967 14.246 326.571 14.1043 326.151 13.957C325.732 13.7983 325.335 13.6113 324.961 13.396C324.587 13.1693 324.281 12.886 324.043 12.546C323.805 12.1947 323.686 11.7583 323.686 11.237C323.686 10.6363 323.839 10.149 324.145 9.775C324.463 9.401 324.876 9.12333 325.386 8.942C325.896 8.76067 326.452 8.67 327.052 8.67C327.528 8.67 327.919 8.71533 328.225 8.806C328.543 8.89667 328.792 8.993 328.973 9.095L329.092 8.84H329.738C329.795 9.30467 329.863 9.76933 329.942 10.234C330.033 10.6873 330.135 11.1067 330.248 11.492L329.687 11.662C329.279 10.8233 328.86 10.217 328.429 9.843C328.01 9.45767 327.523 9.265 326.967 9.265C326.605 9.265 326.293 9.34433 326.032 9.503C325.772 9.66167 325.641 9.90533 325.641 10.234Z" fill="white"/>
<path d="M20.288 7.504L20.32 8.896C20.32 9.26933 20.304 9.64267 20.272 10.016L19.536 10.144C19.3867 9.32267 19.216 8.8 19.024 8.576H15.984V12.096H17.824C18.0907 12.096 18.2667 12.016 18.352 11.856C18.416 11.7387 18.496 11.4933 18.592 11.12L18.624 10.96L19.312 11.04C19.2267 11.6053 19.184 12.1333 19.184 12.624C19.184 13.104 19.2267 13.6107 19.312 14.144L18.624 14.208C18.528 13.792 18.4373 13.504 18.352 13.344C18.2773 13.1733 18.1013 13.088 17.824 13.088H15.984V17.008H19.184C19.3227 16.8907 19.4827 16.6187 19.664 16.192C19.856 15.7547 19.9893 15.4027 20.064 15.136L20.8 15.264C20.7893 15.5733 20.7467 16.0533 20.672 16.704C20.5973 17.344 20.528 17.776 20.464 18H14.88C14.4427 18 13.7653 18.048 12.848 18.144L12.72 17.52C13.4133 17.3813 13.8027 17.2213 13.888 17.04C13.9093 16.9867 13.92 16.8853 13.92 16.736V8.832C13.92 8.58667 13.8347 8.42667 13.664 8.352C13.4613 8.256 13.2053 8.176 12.896 8.112L12.72 8.064L12.864 7.44C13.888 7.54667 14.56 7.6 14.88 7.6H18.816C19.328 7.6 19.8187 7.568 20.288 7.504ZM24.428 17.488C24.684 17.488 24.8973 17.408 25.068 17.248C25.2387 17.088 25.324 16.8907 25.324 16.656C25.324 16.4107 25.292 16.2293 25.228 16.112C25.164 15.984 25.0573 15.8667 24.908 15.76C24.6947 15.5893 24.3907 15.408 23.996 15.216C23.612 15.024 23.308 14.8587 23.084 14.72C22.8707 14.5813 22.6573 14.3573 22.444 14.048C22.2413 13.728 22.14 13.36 22.14 12.944C22.14 12.3467 22.3747 11.8773 22.844 11.536C23.324 11.184 23.916 11.008 24.62 11.008C25.324 11.008 26.124 11.1307 27.02 11.376C26.988 12.0693 26.8973 12.656 26.748 13.136L26.108 13.28C25.852 12.256 25.3667 11.744 24.652 11.744C24.172 11.744 23.932 12.0267 23.932 12.592C23.932 12.816 24.0227 13.008 24.204 13.168C24.396 13.328 24.6733 13.4987 25.036 13.68C25.3987 13.8507 25.66 13.984 25.82 14.08C25.98 14.1653 26.1933 14.3093 26.46 14.512C26.9507 14.896 27.196 15.4347 27.196 16.128C27.196 16.8213 26.9293 17.3493 26.396 17.712C25.8627 18.0747 25.1587 18.256 24.284 18.256C23.42 18.256 22.6627 18.112 22.012 17.824C21.9907 17.6427 21.98 17.328 21.98 16.88C21.98 16.4213 21.9907 16.1013 22.012 15.92L22.796 15.744C22.8813 16.2667 23.068 16.688 23.356 17.008C23.644 17.328 24.0013 17.488 24.428 17.488ZM30.8068 16.016C30.8068 16.4213 30.8654 16.6933 30.9828 16.832C31.1001 16.9707 31.3134 17.04 31.6228 17.04C31.9428 17.04 32.3534 16.88 32.8548 16.56L33.1748 17.088C32.2361 17.8667 31.4628 18.256 30.8548 18.256C30.2468 18.256 29.7668 18.112 29.4148 17.824C29.0628 17.5253 28.8868 17.0027 28.8868 16.256V12.064H28.0868L27.9588 11.472L28.8868 11.184V10.4L30.8068 9.52V11.28L32.6948 11.136L32.5188 12.176L30.8068 12.112V16.016ZM38.5475 11.008C38.8675 11.008 39.2835 11.136 39.7955 11.392C39.7422 11.68 39.6408 12.0907 39.4915 12.624C39.3528 13.1573 39.2355 13.5413 39.1395 13.776L38.4675 13.856C38.4675 12.8427 38.3235 12.336 38.0355 12.336C37.6515 12.336 37.1928 12.704 36.6595 13.44V16.768C36.6595 16.9067 36.6808 17.008 36.7235 17.072C36.7662 17.1253 36.8462 17.1787 36.9635 17.232C37.1662 17.328 37.4755 17.408 37.8915 17.472L38.1155 17.504L38.0035 18.144C36.7342 18.048 35.9288 18 35.5875 18C35.2462 18 34.6435 18.048 33.7795 18.144L33.6355 17.568C34.0302 17.4827 34.3128 17.3867 34.4835 17.28C34.6542 17.1733 34.7395 17.008 34.7395 16.784V12.784C34.7395 12.4213 34.6008 12.24 34.3235 12.24L33.5875 12.336L33.5075 11.728C33.8702 11.568 34.3182 11.4133 34.8515 11.264C35.3955 11.1147 35.8382 11.0293 36.1795 11.008L36.5155 11.376C36.5155 11.7707 36.5635 12.1387 36.6595 12.48L37.1075 11.856C37.5022 11.2907 37.9822 11.008 38.5475 11.008ZM42.1188 16.208C42.1188 16.4427 42.1828 16.6453 42.3108 16.816C42.4388 16.976 42.6414 17.056 42.9188 17.056C43.1961 17.056 43.5161 16.9013 43.8788 16.592V14.96L43.0468 15.136C42.4281 15.2747 42.1188 15.632 42.1188 16.208ZM45.7988 13.344V16.528C45.7988 16.752 45.8414 16.9013 45.9268 16.976C46.0228 17.0507 46.1721 17.104 46.3748 17.136L46.7748 17.168L46.9188 17.712C46.3428 17.808 45.6228 17.9893 44.7588 18.256C44.3108 17.9893 44.0334 17.648 43.9268 17.232C43.2441 17.9147 42.6841 18.256 42.2468 18.256C41.6281 18.256 41.1321 18.0853 40.7588 17.744C40.3854 17.4027 40.1988 16.9333 40.1988 16.336C40.1988 15.7387 40.4228 15.3013 40.8708 15.024C41.3188 14.736 41.9641 14.544 42.8068 14.448L43.8788 14.32V13.568C43.8788 13.0027 43.8148 12.5813 43.6868 12.304C43.5694 12.0267 43.3348 11.888 42.9828 11.888C42.6308 11.888 42.3161 11.9573 42.0388 12.096C41.9748 12.32 41.9428 12.8053 41.9428 13.552L40.9508 13.824C40.6414 12.864 40.4814 12.2133 40.4708 11.872C41.7294 11.296 42.6681 11.008 43.2868 11.008C44.1508 11.008 44.7854 11.2 45.1908 11.584C45.5961 11.9573 45.7988 12.544 45.7988 13.344ZM50.1505 16.016C50.1505 16.4213 50.2092 16.6933 50.3265 16.832C50.4438 16.9707 50.6572 17.04 50.9665 17.04C51.2865 17.04 51.6972 16.88 52.1985 16.56L52.5185 17.088C51.5798 17.8667 50.8065 18.256 50.1985 18.256C49.5905 18.256 49.1105 18.112 48.7585 17.824C48.4065 17.5253 48.2305 17.0027 48.2305 16.256V12.064H47.4305L47.3025 11.472L48.2305 11.184V10.4L50.1505 9.52V11.28L52.0385 11.136L51.8625 12.176L50.1505 12.112V16.016ZM56.9313 17.008C57.6033 17.008 58.2699 16.7787 58.9313 16.32L59.2673 16.832C58.2433 17.7813 57.2886 18.256 56.4033 18.256C55.3579 18.256 54.5206 17.936 53.8913 17.296C53.2726 16.656 52.9633 15.8133 52.9633 14.768C52.9633 13.7227 53.2779 12.8373 53.9073 12.112C54.5366 11.376 55.3526 11.008 56.3553 11.008C57.3686 11.008 58.1259 11.3173 58.6273 11.936C59.1286 12.544 59.3793 13.3653 59.3793 14.4L55.0273 14.688C55.1126 16.2347 55.7473 17.008 56.9313 17.008ZM57.2993 13.6C57.2993 12.416 56.9473 11.824 56.2433 11.824C55.8486 11.824 55.5446 12.032 55.3313 12.448C55.1286 12.8533 55.0273 13.344 55.0273 13.92L57.2993 13.6ZM67.1584 11.968C66.9984 12 66.7957 12.016 66.5504 12.016C66.3157 12.016 66.097 12.0107 65.8944 12C66.2997 12.4267 66.5024 12.928 66.5024 13.504C66.5024 14.3147 66.2037 14.9493 65.6064 15.408C65.0197 15.856 64.2677 16.08 63.3504 16.08C63.1157 16.08 62.9344 16.064 62.8064 16.032C62.4117 16.3627 62.2144 16.6187 62.2144 16.8C62.2144 17.0453 62.5664 17.1893 63.2704 17.232L64.8544 17.344C65.5904 17.3973 66.1557 17.5947 66.5504 17.936C66.9557 18.2667 67.1584 18.688 67.1584 19.2C67.1584 20.0213 66.6997 20.72 65.7824 21.296C64.865 21.872 63.9157 22.16 62.9344 22.16C61.953 22.16 61.1904 21.9947 60.6464 21.664C60.1024 21.344 59.8304 20.8693 59.8304 20.24C59.8304 19.9093 59.8784 19.664 59.9744 19.504L61.3184 18.544C60.721 18.32 60.4224 17.8987 60.4224 17.28C60.4224 17.0987 60.4597 16.9547 60.5344 16.848L61.9584 15.808C61.841 15.776 61.665 15.6907 61.4304 15.552C61.1957 15.4027 61.0037 15.248 60.8544 15.088C60.7157 14.928 60.5824 14.7093 60.4544 14.432C60.337 14.144 60.2784 13.8347 60.2784 13.504C60.2784 12.7147 60.5717 12.1013 61.1584 11.664C61.745 11.2267 62.5024 11.008 63.4304 11.008C63.8677 11.008 64.3157 11.0933 64.7744 11.264H65.1424C65.857 11.2 66.5184 11.0293 67.1264 10.752L67.4144 11.056L67.1584 11.968ZM62.3424 18.832C61.9477 19.3013 61.7504 19.696 61.7504 20.016C61.7504 20.3467 61.9104 20.6293 62.2304 20.864C62.5504 21.0987 62.9824 21.216 63.5264 21.216C64.0704 21.216 64.5237 21.0773 64.8864 20.8C65.2597 20.5333 65.4464 20.1867 65.4464 19.76C65.4464 19.344 65.105 19.1093 64.4224 19.056L62.3424 18.832ZM62.2624 13.408C62.2624 13.952 62.3584 14.4053 62.5504 14.768C62.753 15.12 63.0464 15.296 63.4304 15.296C64.145 15.296 64.5024 14.736 64.5024 13.616C64.5024 13.0933 64.401 12.656 64.1984 12.304C64.0064 11.952 63.7237 11.776 63.3504 11.776C62.625 11.776 62.2624 12.32 62.2624 13.408ZM70.7376 12.864V16.784C70.7376 16.9227 70.7483 17.0187 70.7696 17.072C70.8016 17.1253 70.871 17.1787 70.9776 17.232C71.1696 17.3493 71.4523 17.4613 71.8256 17.568L71.7136 18.144C70.7963 18.048 70.151 18 69.7776 18C69.4043 18 68.7643 18.048 67.8576 18.144L67.7296 17.568C68.1136 17.4827 68.3963 17.376 68.5776 17.248C68.7376 17.152 68.8176 16.9973 68.8176 16.784V12.784C68.8176 12.4107 68.6736 12.224 68.3856 12.224L67.8256 12.336L67.6976 11.696C68.0816 11.536 68.5883 11.3813 69.2176 11.232C69.847 11.0827 70.3323 11.008 70.6736 11.008L70.9936 11.376C70.823 11.824 70.7376 12.32 70.7376 12.864ZM68.5936 9.344C68.3696 9.14133 68.2576 8.87467 68.2576 8.544C68.2576 8.21333 68.3696 7.94667 68.5936 7.744C68.8283 7.54133 69.1323 7.44 69.5056 7.44C69.879 7.44 70.183 7.54133 70.4176 7.744C70.6523 7.94667 70.7696 8.21333 70.7696 8.544C70.7696 8.87467 70.6523 9.14133 70.4176 9.344C70.183 9.54667 69.879 9.648 69.5056 9.648C69.1323 9.648 68.8283 9.54667 68.5936 9.344ZM74.4313 16.208C74.4313 16.4427 74.4953 16.6453 74.6233 16.816C74.7513 16.976 74.9539 17.056 75.2313 17.056C75.5086 17.056 75.8286 16.9013 76.1913 16.592V14.96L75.3593 15.136C74.7406 15.2747 74.4313 15.632 74.4313 16.208ZM78.1113 13.344V16.528C78.1113 16.752 78.1539 16.9013 78.2393 16.976C78.3353 17.0507 78.4846 17.104 78.6873 17.136L79.0873 17.168L79.2313 17.712C78.6553 17.808 77.9353 17.9893 77.0713 18.256C76.6233 17.9893 76.3459 17.648 76.2393 17.232C75.5566 17.9147 74.9966 18.256 74.5593 18.256C73.9406 18.256 73.4446 18.0853 73.0713 17.744C72.6979 17.4027 72.5113 16.9333 72.5113 16.336C72.5113 15.7387 72.7353 15.3013 73.1833 15.024C73.6313 14.736 74.2766 14.544 75.1193 14.448L76.1913 14.32V13.568C76.1913 13.0027 76.1273 12.5813 75.9993 12.304C75.8819 12.0267 75.6473 11.888 75.2953 11.888C74.9433 11.888 74.6286 11.9573 74.3513 12.096C74.2873 12.32 74.2553 12.8053 74.2553 13.552L73.2633 13.824C72.9539 12.864 72.7939 12.2133 72.7833 11.872C74.0419 11.296 74.9806 11.008 75.5993 11.008C76.4633 11.008 77.0979 11.2 77.5033 11.584C77.9086 11.9573 78.1113 12.544 78.1113 13.344Z" fill="#E47670"/>
<g filter="url(#filter0_d_324_372)">
<rect x="4.5" y="1.5" width="83" height="21" rx="4.5" stroke="#E47670" shape-rendering="crispEdges"/>
</g>
<path d="M121.099 19.7634C120.95 19.763 120.804 19.7265 120.672 19.657L116 17.2004L111.328 19.657C111.177 19.7363 111.006 19.7717 110.836 19.7593C110.665 19.7469 110.502 19.6871 110.364 19.5868C110.226 19.4864 110.118 19.3494 110.054 19.1913C109.989 19.0332 109.97 18.8602 109.999 18.6918L110.891 13.4888L107.11 9.80377C106.988 9.68437 106.901 9.53315 106.861 9.3672C106.82 9.20125 106.826 9.02717 106.879 8.86462C106.932 8.70206 107.029 8.55752 107.16 8.4473C107.29 8.33707 107.449 8.26557 107.618 8.24085L112.842 7.48185L115.179 2.74819C115.263 2.60504 115.383 2.48637 115.527 2.40391C115.671 2.32145 115.834 2.27808 116.001 2.27808C116.167 2.27808 116.33 2.32145 116.474 2.40391C116.618 2.48637 116.738 2.60504 116.822 2.74819L119.158 7.48185L124.382 8.24085C124.551 8.26557 124.71 8.33707 124.841 8.4473C124.971 8.55752 125.069 8.70206 125.121 8.86462C125.174 9.02717 125.18 9.20125 125.14 9.3672C125.099 9.53315 125.012 9.68437 124.89 9.80377L121.11 13.4888L122.002 18.6918C122.025 18.8233 122.019 18.9582 121.984 19.0869C121.949 19.2157 121.886 19.3353 121.8 19.4373C121.714 19.5394 121.607 19.6214 121.486 19.6777C121.365 19.7341 121.232 19.7633 121.099 19.7634Z" fill="#DDD704"/>
<path d="M139.93 17.17C139.148 17.17 138.451 17.068 137.839 16.864C137.227 16.6487 136.745 16.354 136.394 15.98C136.054 15.5947 135.884 15.147 135.884 14.637L137.329 15.844C137.612 16.0367 137.918 16.1953 138.247 16.32C138.587 16.4333 138.955 16.49 139.352 16.49C140.123 16.49 140.718 16.2803 141.137 15.861C141.568 15.4303 141.783 14.8013 141.783 13.974C141.783 13.5547 141.709 13.1467 141.562 12.75C141.415 12.342 141.143 12.0077 140.746 11.747C140.361 11.4863 139.8 11.356 139.063 11.356V10.931C139.947 10.931 140.729 10.999 141.409 11.135C142.1 11.2597 142.678 11.4523 143.143 11.713C143.619 11.9623 143.976 12.2797 144.214 12.665C144.463 13.0503 144.588 13.498 144.588 14.008C144.588 14.5633 144.458 15.0393 144.197 15.436C143.936 15.8327 143.585 16.1613 143.143 16.422C142.701 16.6713 142.202 16.8583 141.647 16.983C141.092 17.1077 140.519 17.17 139.93 17.17ZM137.329 15.844L135.884 14.637C135.884 14.2177 136.02 13.8777 136.292 13.617C136.564 13.345 136.881 13.209 137.244 13.209C137.629 13.209 137.952 13.3393 138.213 13.6C138.474 13.8607 138.604 14.1837 138.604 14.569C138.604 14.9203 138.491 15.2207 138.264 15.47C138.037 15.7193 137.726 15.844 137.329 15.844ZM137.363 9.996C137 9.996 136.683 9.86567 136.411 9.605C136.139 9.333 136.003 8.98733 136.003 8.568L137.159 7.361C137.51 7.30433 137.799 7.33833 138.026 7.463C138.253 7.57633 138.423 7.74067 138.536 7.956C138.661 8.17133 138.723 8.398 138.723 8.636C138.723 9.02133 138.593 9.34433 138.332 9.605C138.071 9.86567 137.748 9.996 137.363 9.996ZM139.063 11.169V10.761C139.573 10.761 139.981 10.6873 140.287 10.54C140.604 10.3813 140.848 10.183 141.018 9.945C141.188 9.69567 141.301 9.42933 141.358 9.146C141.415 8.86267 141.443 8.59633 141.443 8.347C141.443 7.67833 141.284 7.14 140.967 6.732C140.661 6.324 140.174 6.12 139.505 6.12C139.029 6.12 138.581 6.22767 138.162 6.443C137.754 6.65833 137.42 6.96433 137.159 7.361L136.003 8.568C136.003 8.058 136.156 7.565 136.462 7.089C136.779 6.60167 137.238 6.205 137.839 5.899C138.451 5.593 139.205 5.44 140.1 5.44C140.519 5.44 140.961 5.48533 141.426 5.576C141.902 5.66667 142.344 5.814 142.752 6.018C143.171 6.222 143.511 6.49967 143.772 6.851C144.033 7.191 144.163 7.62167 144.163 8.143C144.163 8.619 144.038 9.03833 143.789 9.401C143.551 9.76367 143.205 10.0697 142.752 10.319C142.31 10.557 141.777 10.7497 141.154 10.897C140.531 11.033 139.834 11.1237 139.063 11.169ZM147.331 17.17C146.946 17.17 146.606 17.0283 146.311 16.745C146.028 16.4503 145.886 16.1103 145.886 15.725C145.886 15.3283 146.028 14.9883 146.311 14.705C146.606 14.4217 146.946 14.28 147.331 14.28C147.728 14.28 148.068 14.4217 148.351 14.705C148.634 14.9883 148.776 15.3283 148.776 15.725C148.776 16.1103 148.634 16.4503 148.351 16.745C148.068 17.0283 147.728 17.17 147.331 17.17ZM154.003 17.17C153.606 17.17 153.181 17.1247 152.728 17.034C152.275 16.9547 151.844 16.8073 151.436 16.592C151.028 16.3767 150.694 16.082 150.433 15.708C150.184 15.334 150.059 14.8523 150.059 14.263C150.059 13.6737 150.184 13.175 150.433 12.767C150.694 12.3477 151.028 11.9963 151.436 11.713C151.844 11.4297 152.275 11.203 152.728 11.033L153.646 11.254C153.181 11.424 152.734 11.6393 152.303 11.9C151.872 12.1493 151.515 12.461 151.232 12.835C150.96 13.1977 150.824 13.651 150.824 14.195C150.824 14.637 150.915 15.0053 151.096 15.3C151.289 15.5947 151.532 15.8327 151.827 16.014C152.122 16.184 152.439 16.3087 152.779 16.388C153.119 16.456 153.448 16.49 153.765 16.49C154.218 16.49 154.615 16.422 154.955 16.286C155.306 16.1387 155.584 15.929 155.788 15.657C155.992 15.385 156.094 15.0563 156.094 14.671C156.094 14.263 155.986 13.923 155.771 13.651C155.567 13.3677 155.295 13.124 154.955 12.92C154.615 12.716 154.235 12.5233 153.816 12.342C153.408 12.1607 152.994 11.9737 152.575 11.781C152.167 11.5883 151.793 11.3617 151.453 11.101C151.113 10.829 150.835 10.506 150.62 10.132C150.416 9.758 150.314 9.299 150.314 8.755C150.314 8.007 150.512 7.38933 150.909 6.902C151.306 6.40333 151.816 6.035 152.439 5.797C153.074 5.559 153.742 5.44 154.445 5.44C155.091 5.44 155.663 5.542 156.162 5.746C156.672 5.93867 157.069 6.23333 157.352 6.63C157.647 7.01533 157.794 7.497 157.794 8.075C157.794 8.69833 157.618 9.23667 157.267 9.69C156.916 10.132 156.406 10.5513 155.737 10.948L154.768 10.778C155.573 10.37 156.151 9.945 156.502 9.503C156.853 9.061 157.029 8.59633 157.029 8.109C157.029 7.64433 156.904 7.27033 156.655 6.987C156.417 6.69233 156.111 6.477 155.737 6.341C155.363 6.19367 154.972 6.12 154.564 6.12C153.884 6.12 153.385 6.28433 153.068 6.613C152.762 6.93033 152.609 7.29867 152.609 7.718C152.609 8.092 152.711 8.40367 152.915 8.653C153.13 8.90233 153.408 9.12333 153.748 9.316C154.088 9.49733 154.462 9.673 154.87 9.843C155.289 10.013 155.703 10.2 156.111 10.404C156.53 10.608 156.91 10.8517 157.25 11.135C157.59 11.4183 157.862 11.7697 158.066 12.189C158.281 12.6083 158.389 13.1183 158.389 13.719C158.389 14.3537 158.276 14.8807 158.049 15.3C157.822 15.7193 157.528 16.0537 157.165 16.303C156.814 16.5523 156.434 16.7393 156.026 16.864C155.629 16.9887 155.25 17.068 154.887 17.102C154.524 17.1473 154.23 17.17 154.003 17.17Z" fill="white"/>
<path d="M187.5 0C184.876 0 182.75 2.46125 182.75 5.5C182.75 8.53187 184.876 11 187.5 11C190.124 11 192.25 8.53187 192.25 5.5C192.25 2.46125 190.124 0 187.5 0ZM187.5 13.75C184.335 13.75 178 15.5856 178 19.25V22H197V19.25C197 15.5856 190.665 13.75 187.5 13.75Z" fill="black"/>
<defs>
<filter id="filter0_d_324_372" x="0" y="1" width="92" height="30" filterUnits="userSpaceOnUse" color-interpolation-filters="sRGB">
<feFlood flood-opacity="0" result="BackgroundImageFix"/>
<feColorMatrix in="SourceAlpha" type="matrix" values="0 0 0 0 0 0 0 0 0 0 0 0 0 0 0 0 0 0 127 0" result="hardAlpha"/>
<feOffset dy="4"/>
<feGaussianBlur stdDeviation="2"/>
<feComposite in2="hardAlpha" operator="out"/>
<feColorMatrix type="matrix" values="0 0 0 0 0 0 0 0 0 0 0 0 0 0 0 0 0 0 0.25 0"/>
<feBlend mode="normal" in2="BackgroundImageFix" result="effect1_dropShadow_324_372"/>
<feBlend mode="normal" in="SourceGraphic" in2="effect1_dropShadow_324_372" result="shape"/>
</filter>
</defs>
</svg>
