<svg width="45" height="45" viewBox="0 0 45 45" fill="none" xmlns="http://www.w3.org/2000/svg">
<path d="M39.5656 15.9393L33.3708 7.4083L23.3463 4.15942V12.3027L31.8175 18.4577L39.5656 15.9393ZM31.5272 13.4418C31.4758 13.65 31.3863 13.8469 31.2631 14.0224C31.1418 14.1921 30.9855 14.3337 30.8046 14.4377C30.6238 14.5417 30.4228 14.6056 30.2151 14.6251C29.7729 14.6789 29.3121 14.5308 28.8327 14.1807C28.3534 13.8307 28.0722 13.437 27.989 12.9996C27.9451 12.7961 27.9452 12.5856 27.9895 12.3822C28.0338 12.1788 28.1212 11.9873 28.2458 11.8206C28.3757 11.6501 28.5359 11.5051 28.7185 11.3929C28.919 11.2637 29.1835 11.2175 29.5118 11.2546C29.3748 10.97 29.3225 10.6521 29.3609 10.3387C29.4037 10.026 29.5256 9.72948 29.7151 9.47716C29.8541 9.28163 30.033 9.1179 30.2401 8.99683C30.4472 8.87575 30.6777 8.80011 30.9162 8.77491C31.4221 8.70999 31.9429 8.87317 32.4788 9.26446C33.0147 9.65569 33.3173 10.0937 33.3864 10.5786C33.4231 10.8125 33.4122 11.0514 33.3544 11.281C33.2966 11.5106 33.1931 11.7262 33.05 11.9149C32.8671 12.1726 32.6205 12.3785 32.3342 12.5123C32.0552 12.6422 31.7418 12.679 31.4403 12.6171C31.5597 12.937 31.5886 13.212 31.5272 13.4418ZM30.584 12.7135C30.5965 12.8096 30.5896 12.9073 30.5636 13.0007C30.5377 13.0942 30.4933 13.1814 30.4331 13.2574C30.3407 13.3732 30.2173 13.4604 30.0772 13.5088C29.9372 13.5573 29.7863 13.565 29.6421 13.5311C29.4978 13.4971 29.3662 13.423 29.2624 13.3172C29.1587 13.2114 29.0871 13.0784 29.0559 12.9335C29.0452 12.8338 29.0545 12.7329 29.0833 12.6368C29.1121 12.5407 29.1598 12.4513 29.2236 12.3739C29.2771 12.2932 29.346 12.2238 29.4264 12.1699C29.5068 12.1159 29.5971 12.0784 29.6921 12.0595C29.7926 12.045 29.8949 12.0519 29.9926 12.0795C30.0903 12.1071 30.1811 12.155 30.2591 12.2199C30.3456 12.2747 30.4197 12.347 30.4765 12.4322C30.5334 12.5174 30.5718 12.6136 30.5893 12.7145L30.584 12.7135ZM31.4225 11.679C31.1939 11.7003 30.9655 11.6376 30.7799 11.5026C30.5942 11.3676 30.4642 11.1695 30.4142 10.9455C30.3821 10.7281 30.4554 10.4969 30.6343 10.2517C30.767 10.0409 30.9769 9.89044 31.2191 9.83241C31.4497 9.80975 31.6805 9.87275 31.8677 10.0094C32.0548 10.146 32.185 10.3468 32.2336 10.5733C32.2529 10.8207 32.1751 11.0658 32.0166 11.2567C31.8441 11.5027 31.6492 11.6435 31.4319 11.6791L31.4225 11.679ZM21.6694 12.3027V4.15942L11.645 7.4083L5.4501 15.9393L13.1982 18.4546L21.6694 12.3027ZM11.7677 10.3868L15.0983 8.05597C15.3253 8.39039 15.477 8.77018 15.5427 9.16901C15.6335 9.58825 15.5517 10.157 15.2975 10.8752C15.1376 11.2903 15.0101 11.7171 14.9159 12.1518C14.8578 12.4671 14.9259 12.7927 15.1056 13.0583C15.2293 13.2489 15.4176 13.3884 15.6359 13.4513C15.7443 13.4776 15.8573 13.4788 15.9663 13.4548C16.0752 13.4308 16.1773 13.3823 16.2647 13.313C16.5554 13.1096 16.6773 12.8627 16.6305 12.5721C16.5692 12.3302 16.4625 12.1022 16.3161 11.9002L17.2457 11.2504C17.5196 11.6752 17.6785 12.062 17.7225 12.4106C17.8071 13.0743 17.5234 13.6333 16.8716 14.0875C16.3566 14.448 15.8472 14.5919 15.3435 14.5193C14.8398 14.4466 14.4233 14.1759 14.0942 13.707C13.8467 13.363 13.7237 12.9449 13.7453 12.5217C13.7822 12.1421 13.8743 11.77 14.0188 11.4171L14.2117 10.8773C14.3325 10.5398 14.4104 10.302 14.4454 10.1637C14.4803 10.0268 14.493 9.8853 14.4831 9.74443L12.3597 11.2305L11.7677 10.3868ZM17.4542 29.3195H27.5614L30.6824 19.7069L22.5078 13.7657L14.3332 19.707L17.4542 29.3195ZM25.2998 20.9636C25.226 20.8791 25.1337 20.8127 25.0301 20.7694C24.9266 20.7262 24.8145 20.7073 24.7024 20.7142C24.3475 20.7142 24.1061 20.8466 23.9782 21.1114C23.8882 21.3454 23.8438 21.5943 23.8473 21.845H22.7174C22.7363 21.3399 22.8278 20.9319 22.992 20.6209C23.3037 20.0284 23.8571 19.7322 24.6522 19.7322C25.2809 19.7322 25.7808 19.9068 26.1519 20.2562C26.5229 20.6055 26.7056 21.0635 26.7 21.6301C26.7052 22.0538 26.5663 22.4666 26.3059 22.8009C26.0613 23.0933 25.7753 23.3486 25.457 23.5585L24.9896 23.8897C24.6969 24.0993 24.4967 24.2495 24.3891 24.3403C24.2815 24.4329 24.1894 24.5423 24.1167 24.6642H26.7084V25.6912H22.6472C22.6532 25.2871 22.7469 24.8891 22.9219 24.5248C23.0882 24.1293 23.4812 23.7101 24.1008 23.2671C24.4709 23.0188 24.8214 22.7424 25.1489 22.4402C25.3773 22.2153 25.5083 21.9098 25.5137 21.5893C25.5205 21.3614 25.4445 21.1388 25.2998 20.9626V20.9636ZM18.3031 20.8043C18.5617 20.7993 18.8196 20.7748 19.0745 20.7309C19.2929 20.6872 19.4927 20.5775 19.6467 20.4166C19.7556 20.2949 19.834 20.149 19.8752 19.991C19.9 19.9139 19.9151 19.8339 19.9202 19.7531H20.8949V25.6892H19.6991V21.5976H18.3032V20.8033L18.3031 20.8043ZM17.2677 30.9964L12.4835 37.5917L22.5078 40.8406L32.5323 37.5917L27.748 30.9964H17.2677ZM24.059 38.3609C23.7285 38.7843 23.2153 38.9957 22.5194 38.995C21.7718 38.995 21.2205 38.6823 20.8656 38.057C20.5896 37.5679 20.4516 36.9391 20.4516 36.1705C20.4471 35.8011 20.4663 35.4318 20.5093 35.0648C20.5578 34.6236 20.6928 34.1963 20.9065 33.8072C21.0699 33.5268 21.2981 33.2896 21.572 33.1155C21.8678 32.935 22.2096 32.844 22.5561 32.8535C23.1073 32.8535 23.5468 32.9933 23.8744 33.2728C24.0373 33.4142 24.1701 33.5868 24.265 33.7805C24.3599 33.9742 24.4149 34.185 24.4268 34.4004H23.2697C23.2637 34.2873 23.2256 34.1782 23.1597 34.086C23.0972 33.9942 23.0118 33.9202 22.9121 33.8713C22.8123 33.8224 22.7015 33.8003 22.5906 33.8072C22.2113 33.8072 21.9412 34.02 21.7805 34.4455C21.6743 34.7824 21.6137 35.1321 21.6003 35.4851C21.735 35.3208 21.9076 35.1916 22.1033 35.1089C22.4344 34.9843 22.7943 34.9576 23.1401 35.0319C23.4859 35.1062 23.803 35.2785 24.0536 35.5281C24.3965 35.9008 24.5781 36.394 24.5588 36.9C24.5653 37.429 24.3903 37.9442 24.0631 38.3599L24.059 38.3609ZM23.1158 36.1978C23.2848 36.3822 23.3693 36.6477 23.3693 36.9943C23.3816 37.2654 23.303 37.5328 23.1461 37.7541C23.0755 37.8489 22.9829 37.9251 22.8763 37.976C22.7696 38.027 22.6522 38.0512 22.5341 38.0465C22.4091 38.0492 22.2851 38.0232 22.1716 37.9708C22.0581 37.9183 21.958 37.8406 21.8791 37.7437C21.7033 37.5225 21.6139 37.245 21.6275 36.9628C21.6275 36.5673 21.7421 36.2809 21.9712 36.1034C22.1202 35.9852 22.3051 35.9216 22.4953 35.9233C22.6133 35.9205 22.7306 35.9436 22.8388 35.9908C22.9471 36.038 23.0437 36.1083 23.122 36.1967L23.1158 36.1978ZM33.5877 26.3369L36.038 27.0705L35.6187 28.4905L33.5877 26.3369ZM32.33 20.0486L29.0947 30.0049L33.8832 36.5961L40.0781 28.0693V17.5344L32.33 20.0486ZM38.1371 27.6909L36.9131 27.3251L36.2402 29.5763L35.2635 29.285L32.4337 26.1628L32.809 24.9052L36.3628 25.9669L36.5547 25.3234L37.4297 25.5844L37.2379 26.2278L38.4621 26.5936L38.1371 27.6909ZM12.67 20.0486L4.92188 17.5334V28.0745L11.1168 36.6013L15.9052 30.0102L12.67 20.0486ZM6.37559 25.1578L10.2806 23.9273L9.86133 22.5964L10.619 22.3574C10.7016 22.6026 10.8025 22.8412 10.9209 23.0711C11.0273 23.266 11.1908 23.4236 11.3894 23.5229C11.5382 23.5903 11.7009 23.6212 11.8641 23.613C11.945 23.6136 12.0256 23.6041 12.1041 23.5847L12.3965 24.5143L6.73717 26.296L6.37559 25.1578ZM7.99893 30.3079L7.63945 29.1676L11.5444 27.9372L11.1252 26.6062L11.883 26.3673C11.9656 26.6124 12.0664 26.851 12.1848 27.0809C12.2911 27.2759 12.4546 27.4335 12.6533 27.5327C12.8021 27.6002 12.9649 27.6311 13.128 27.6228C13.2089 27.6233 13.2895 27.6138 13.368 27.5945L13.6605 28.5241L7.99893 30.3079Z" fill="#E02424"/>
</svg>
