<svg width="24" height="24" viewBox="0 0 24 24" fill="none" xmlns="http://www.w3.org/2000/svg">
<path d="M5.59855 1.6875C4.84264 1.6875 4.2298 2.49548 4.2298 3.49219V20.5078C4.2298 21.5045 4.84264 22.3125 5.59855 22.3125H18.5031C19.259 22.3125 19.8718 21.5045 19.8718 20.5078V3.49219C19.8718 2.49548 19.259 1.6875 18.5031 1.6875H5.59855ZM6.8563 2.08163V2.08172H6.857C7.49389 2.08219 8.00272 2.59045 8.00272 3.22744C8.00272 3.49509 7.90883 3.74292 7.75588 3.93867C7.80838 3.93127 7.8605 3.92414 7.91506 3.92414C8.55233 3.92414 9.06153 4.44713 9.06153 5.08439C9.06153 5.72161 8.55233 6.24464 7.91506 6.24464C7.64506 6.24464 7.39569 6.14864 7.19816 5.99048L7.7892 7.40578H5.90872L6.49091 6.01153C6.29778 6.15755 6.05811 6.24464 5.79828 6.24464C5.16106 6.24464 4.63803 5.72152 4.63803 5.0843C4.63803 4.44703 5.16106 3.92405 5.79828 3.92405C5.84792 3.92405 5.89475 3.93267 5.94275 3.93867C5.79205 3.74367 5.69675 3.49294 5.69675 3.22744C5.69675 2.59045 6.21941 2.08209 6.8563 2.08163ZM11.3313 7.73456H11.7046L14.6634 15.2737C14.7823 15.5783 15.0256 15.7306 15.3934 15.7306H15.6497V16.1485H12.3622V15.7306H12.624C12.9658 15.7306 13.2073 15.6935 13.3485 15.6192C13.445 15.5671 13.4933 15.4873 13.4933 15.3796C13.4933 15.3164 13.4803 15.2496 13.4543 15.179L12.769 13.4293H9.51477L9.13039 14.4323C9.03008 14.6997 8.97983 14.9115 8.97983 15.0675C8.97983 15.2495 9.06345 15.4056 9.23061 15.5356C9.40147 15.6656 9.64855 15.7306 9.9717 15.7306H10.2503V16.1485H7.26369V15.7306C7.58314 15.7306 7.83575 15.6619 8.02147 15.5244C8.20719 15.3833 8.37805 15.1177 8.53409 14.7276L11.3313 7.73456ZM11.1697 9.32264L9.69313 12.9946H12.6073L11.1697 9.32264ZM16.2091 16.5943H18.0896L17.4985 18.0096C17.696 17.8515 17.9454 17.7555 18.2154 17.7555C18.8526 17.7555 19.3619 18.2784 19.3619 18.9157C19.3619 19.553 18.8526 20.076 18.2154 20.076C18.1609 20.076 18.1087 20.0688 18.0562 20.0614C18.2091 20.2572 18.303 20.505 18.303 20.7727C18.303 21.4096 17.7943 21.918 17.1574 21.9184H17.1566C16.5197 21.9179 15.9972 21.4096 15.9972 20.7727C15.9972 20.5071 16.0925 20.2564 16.2432 20.0614C16.1952 20.0674 16.1482 20.076 16.0986 20.076C15.4614 20.076 14.9384 19.553 14.9384 18.9157C14.9384 18.2785 15.4614 17.7555 16.0986 17.7555C16.3584 17.7555 16.5981 17.8425 16.7912 17.9886L16.2091 16.5943Z" fill="white"/>
</svg>
