<svg width="18" height="24" viewBox="0 0 18 24" fill="none" xmlns="http://www.w3.org/2000/svg">
<path d="M17.2488 4.44559C17.2469 4.30647 17.2453 4.18635 17.2453 4.08504H14.2682C14.3257 2.3851 14.2871 0.942184 14.2871 0.942184H9.03641C9.0241 0.94226 9.01181 0.943178 8.99958 0.944934C8.98735 0.943175 8.97505 0.942257 8.96275 0.942184H3.69873C3.69873 0.942184 3.66013 2.3851 3.71758 4.08504H0.754425V5.65647H0.760355C0.790223 6.93797 0.943763 8.65196 1.58286 10.4066C2.12491 11.8948 2.90547 13.1401 3.90295 14.1076C4.72873 14.9086 5.67225 15.4858 6.70951 15.8305C7.30853 16.6829 7.89927 17.1529 8.41488 17.3419V19.0913C8.34122 19.611 7.89412 21.3708 4.77742 21.3708H4.29002V22.9422H13.7183V21.3708H13.2329C9.5764 21.3708 9.59341 18.9481 9.59341 18.9481V17.3416C10.109 17.1529 10.6883 16.6849 11.2842 15.8368C12.329 15.4928 13.2757 14.9135 14.1066 14.1076C15.104 13.14 15.884 11.8948 16.4261 10.4065C17.2982 8.01199 17.2659 5.69197 17.2488 4.44559ZM2.64236 9.71984C2.10981 8.25748 1.97045 6.78574 1.93984 5.65647H3.79924C3.8312 6.09421 3.87164 6.52572 3.92283 6.93227C4.23636 9.42245 4.66726 11.6217 5.48269 13.5622C4.23647 12.7204 3.2577 11.4093 2.64236 9.71984ZM15.3659 9.71984C14.7469 11.4194 13.76 12.7361 12.5032 13.5772C13.3214 11.633 13.7486 9.42888 14.063 6.93232C14.1142 6.52572 14.1546 6.09421 14.1866 5.65652H16.0684C16.0378 6.78574 15.8985 8.25748 15.3659 9.71984Z" fill="#DDD704"/>
</svg>
