<svg width="24" height="24" viewBox="0 0 24 24" fill="none" xmlns="http://www.w3.org/2000/svg">
<path d="M11.6423 1.92627C9.31532 2.00849 7.01164 2.89377 5.17874 4.58202L9.86858 9.27186C11.335 7.60147 12.0056 5.11471 11.6423 1.92627ZM12.492 1.93129C12.8504 5.26902 12.1267 8.00441 10.4659 9.86933L12 11.4033L18.8212 4.58202C17.0236 2.92621 14.7732 2.04238 12.492 1.93129ZM4.58202 5.17874C2.89372 7.01164 2.00849 9.31532 1.92627 11.6423C5.11471 12.0056 7.60143 11.335 9.27191 9.86858L4.58202 5.17874ZM19.418 5.17874L12.5967 12L14.13 13.5333C15.7151 12.1218 17.9292 11.3873 20.6073 11.4187C21.0802 11.4243 21.5678 11.454 22.0687 11.5078C21.9576 9.22663 21.0737 6.9763 19.4179 5.17874H19.418ZM9.86928 10.4659C8.00436 12.1266 5.26897 12.8504 1.93129 12.4919C2.04238 14.7732 2.92625 17.0236 4.58207 18.8212L11.4033 12L9.86928 10.4659ZM20.4163 12.2598C18.0139 12.2617 16.0971 12.9296 14.7281 14.1314L19.4179 18.8212C21.1062 16.9883 21.9914 14.6847 22.0737 12.3576C21.4983 12.292 20.9452 12.2594 20.4162 12.2598L20.4163 12.2598ZM12 12.5967L5.17874 19.418C6.97639 21.0738 9.22677 21.9576 11.508 22.0687C11.1496 18.731 11.8733 15.9956 13.5341 14.1307L12 12.5967ZM14.1314 14.7281C12.665 16.3985 11.9944 18.8853 12.3576 22.0737C14.6847 21.9915 16.9883 21.1062 18.8212 19.418L14.1314 14.7281Z" fill="white"/>
</svg>
