<svg width="16" height="17" viewBox="0 0 16 17" fill="none" xmlns="http://www.w3.org/2000/svg">
<path d="M10.6283 3.11534C10.6283 3.63517 10.4741 4.14332 10.1853 4.57554C9.89654 5.00776 9.48606 5.34463 9.0058 5.54356C8.52554 5.74249 7.99708 5.79453 7.48725 5.69312C6.97741 5.59171 6.5091 5.34139 6.14152 4.97382C5.77395 4.60625 5.52363 4.13793 5.42222 3.62809C5.32081 3.11826 5.37286 2.5898 5.57178 2.10954C5.77071 1.62929 6.10759 1.2188 6.53981 0.930006C6.97202 0.641206 7.48018 0.487061 8 0.487061C8.69706 0.487061 9.36558 0.763968 9.85848 1.25687C10.3514 1.74976 10.6283 2.41828 10.6283 3.11534ZM15.0312 13.5942H0.96875V16.4067H15.0312V13.5942ZM9.23422 6.25878C8.44934 6.56813 7.57691 6.57148 6.78969 6.26815C6.75547 9.02956 3.86703 11.6147 2.25453 12.8438H13.7609C12.163 11.6096 9.28719 9.01034 9.23422 6.25878Z" fill="white"/>
</svg>
