<svg width="37" height="37" viewBox="0 0 37 37" fill="none" xmlns="http://www.w3.org/2000/svg">
<path d="M27.3466 31.1596C24.8349 33.9631 21.3484 35.5783 17.7764 35.5783C16.8301 35.5783 15.8837 35.4573 14.9659 35.2296C12.4328 34.6035 10.2697 33.2231 8.52644 31.1241C8.46951 31.0529 3.64528 24.8625 8.12086 17.4768C8.36278 17.0854 8.63317 16.7296 8.84663 16.4593C10.7962 14.0045 12.7032 10.6104 11.6643 9.10907C11.5837 8.99018 11.5412 8.84957 11.5425 8.70594C11.5438 8.56231 11.5887 8.42248 11.6714 8.30503C11.8351 8.05599 12.141 7.94215 12.4257 8.02042C12.7032 8.08446 14.852 8.76042 15.3145 13.0154C15.7841 12.0193 16.1968 10.6887 16.0972 9.17311C15.9478 6.87484 14.6884 4.69042 12.3474 2.66965C12.2249 2.56383 12.1425 2.41913 12.114 2.2598C12.0855 2.10046 12.1126 1.93617 12.1909 1.79446C12.3474 1.50273 12.6961 1.3533 13.0091 1.45292C13.1728 1.49561 28.3784 6.10638 26.073 21.867C26.9624 20.9135 27.9514 19.0635 27.7095 15.6766C27.6882 15.3421 27.8945 15.0433 28.2076 14.9437C28.5278 14.8441 28.8693 14.9793 29.033 15.2639C29.0828 15.3493 33.8857 23.8521 27.3466 31.1596Z" fill="#FC0000"/>
<path d="M23.7256 32.4686C22.343 34.0118 20.4238 34.9009 18.4575 34.9009C17.9366 34.9009 17.4157 34.8343 16.9104 34.709C15.516 34.3643 14.3253 33.6044 13.3657 32.449C13.3344 32.4098 10.6788 29.0022 13.1425 24.9366C13.2757 24.7212 13.4245 24.5254 13.542 24.3765C14.6152 23.0252 15.6649 21.1569 15.093 20.3305C15.0487 20.265 15.0253 20.1876 15.026 20.1086C15.0267 20.0295 15.0514 19.9525 15.097 19.8879C15.187 19.7508 15.3555 19.6881 15.5121 19.7312C15.6649 19.7665 16.8477 20.1386 17.1023 22.4808C17.3608 21.9325 17.588 21.2 17.5332 20.3657C17.4509 19.1006 16.7577 17.8982 15.469 16.7858C15.4016 16.7276 15.3563 16.6479 15.3406 16.5602C15.3249 16.4725 15.3398 16.3821 15.3829 16.304C15.469 16.1435 15.661 16.0612 15.8333 16.116C15.9234 16.1395 24.2935 18.6776 23.0245 27.3533C23.5141 26.8284 24.0585 25.8101 23.9254 23.9457C23.9136 23.7616 24.0272 23.5971 24.1995 23.5422C24.3758 23.4874 24.5638 23.5618 24.6539 23.7185C24.6813 23.7655 27.3251 28.446 23.7256 32.4686Z" fill="#F8F32B"/>
</svg>
