<svg width="40" height="40" viewBox="0 0 40 40" fill="none" xmlns="http://www.w3.org/2000/svg">
<path d="M20 3.33325C10.8333 3.33325 3.33331 10.8333 3.33331 19.9999C3.33331 29.1666 10.8333 36.6666 20 36.6666C29.1666 36.6666 36.6666 29.1666 36.6666 19.9999C36.6666 10.8333 29.1666 3.33325 20 3.33325ZM20 33.3333C12.6666 33.3333 6.66665 27.3333 6.66665 19.9999C6.66665 12.6666 12.6666 6.66659 20 6.66659C27.3333 6.66659 33.3333 12.6666 33.3333 19.9999C33.3333 27.3333 27.3333 33.3333 20 33.3333Z" fill="#A61818"/>
<path d="M22.8333 13.8333C22.1667 13.1666 21.1667 13.1666 20.5 13.8333L15.5 18.8333C14.8333 19.4999 14.8333 20.4999 15.5 21.1666L20.5 26.1666C20.8333 26.4999 21.3333 26.6666 21.6667 26.6666C22 26.6666 22.5 26.4999 22.8333 26.1666C23.5 25.4999 23.5 24.4999 22.8333 23.8333L19 19.9999L22.8333 16.1666C23.5 15.4999 23.5 14.4999 22.8333 13.8333Z" fill="#A61818"/>
</svg>
