<svg width="19" height="19" viewBox="0 0 19 19" fill="none" xmlns="http://www.w3.org/2000/svg">
<g clip-path="url(#clip0_267_178)">
<path d="M8.67249 12.9459C9.56903 12.9459 10.4092 12.6753 11.1084 12.2129L13.5781 14.6883C13.7416 14.8462 13.9503 14.9251 14.1758 14.9251C14.6438 14.9251 14.9878 14.5586 14.9878 14.0962C14.9878 13.882 14.9145 13.6733 14.7566 13.5154L12.3038 11.0514C12.8113 10.3296 13.1101 9.45562 13.1101 8.50833C13.1101 6.0668 11.114 4.07072 8.67249 4.07072C6.2366 4.07072 4.23488 6.0668 4.23488 8.50833C4.23488 10.9499 6.23096 12.9459 8.67249 12.9459ZM8.67249 11.7618C6.88504 11.7618 5.41899 10.2958 5.41899 8.50833C5.41899 6.72088 6.88504 5.25484 8.67249 5.25484C10.4599 5.25484 11.926 6.72088 11.926 8.50833C11.926 10.2958 10.4599 11.7618 8.67249 11.7618Z" fill="white"/>
</g>
<defs>
<clipPath id="clip0_267_178">
<rect width="17.9635" height="17.9635" fill="white" transform="translate(0.632416 0.566193)"/>
</clipPath>
</defs>
</svg>
