<svg width="24" height="24" viewBox="0 0 24 24" fill="none" xmlns="http://www.w3.org/2000/svg">
<path d="M13.3888 1.99097C11.5325 1.99097 9.96696 3.32751 9.96696 5.03784C9.96696 5.90175 10.3667 6.67003 11.0013 7.21908L11.3985 6.43767C11.0293 6.0532 10.8107 5.56265 10.8107 5.03784C10.8107 3.84862 11.9314 2.83472 13.3888 2.83472C14.8461 2.83472 15.9669 3.84862 15.9669 5.03784C15.9669 5.85361 15.4394 6.58687 14.6377 6.96694L14.287 7.97737C14.3761 7.95572 14.4639 7.93115 14.5501 7.90331L14.9794 8.65392C14.4954 8.99437 14.0269 9.41639 13.5247 9.94167L17.338 18.3507C19.6941 18.4593 21.9675 17.21 23.1389 15.1627L18.0844 7.43597C17.1391 7.62473 16.3786 7.86037 15.6996 8.214L15.3204 7.551C16.2137 7.00655 16.8107 6.09365 16.8107 5.03789C16.8107 3.32756 15.2452 1.99101 13.3888 1.99101V1.99097ZM7.63886 2.26973C7.51417 2.27114 7.38321 2.29176 7.25674 2.33292C6.96752 2.42686 6.72283 2.62045 6.61642 2.82933L6.60292 2.85605L3.56055 7.18247C3.46047 7.39115 3.44889 7.69561 3.53913 7.97794C3.63147 8.26655 3.82249 8.50786 4.01735 8.60709L10.7524 12.0365C10.9433 12.1337 11.2488 12.1492 11.5328 12.0565C11.8115 11.9655 12.0483 11.7806 12.1611 11.5647L13.3498 8.08373C13.3522 8.08373 13.3545 8.08387 13.3569 8.08392L13.6534 7.22939C13.6494 7.22976 13.6452 7.22986 13.6413 7.23023L13.8712 6.55687L13.8848 6.53025C13.9912 6.32137 14.0038 6.009 13.9105 5.72015C13.8173 5.43131 13.6246 5.18789 13.4215 5.08444L11.9178 4.31883C11.6111 4.70217 11.517 5.25014 11.9016 5.76586L12.0005 5.93142L12.4827 6.18455L12.0957 6.94458L12.0889 6.9413L11.7084 7.68989C11.7105 7.69097 11.7126 7.6919 11.7147 7.69294L11.4192 8.27306L6.65721 5.84831L7.52936 4.13559L7.72071 3.75965L9.16699 4.49615C9.23992 4.03631 9.39771 3.5939 9.65144 3.16472L8.06735 2.35823C7.9495 2.29823 7.79917 2.268 7.63886 2.26973ZM17.8542 8.42817L18.9831 10.4822L15.6145 12.3333L14.6888 10.6491L14.4856 10.2794L17.8542 8.42822V8.42817ZM17.5211 9.57398L15.6315 10.6125L15.9475 11.1876L17.8372 10.1491L17.5211 9.57398ZM5.36721 10.2413L4.38892 12.1628L7.64711 13.8218L8.62553 11.9003L5.36721 10.2413ZM19.2991 11.0574L20.4279 13.1113L17.0593 14.9624L16.1337 13.2782L15.9306 12.9085L19.2992 11.0573L19.2991 11.0574ZM18.966 12.2031L17.0763 13.2416L17.3924 13.8167L19.2821 12.7783L18.9661 12.2031H18.966ZM4.67439 13.255H4.6743L0.861206 20.7435L1.14822 21.6262L4.76997 14.5135L5.52175 14.8964L1.9001 22.009L2.94892 21.668L3.5568 21.4703L3.22933 20.4599L4.23696 20.1331L3.90902 19.125L4.91777 18.7969L4.66605 18.0233L6.59589 14.2334L4.67439 13.255Z" fill="white"/>
</svg>
