<svg width="24" height="24" viewBox="0 0 24 24" fill="none" xmlns="http://www.w3.org/2000/svg">
<path d="M3.41295 20.1478C2.36782 20.0449 2.1349 19.2139 2.21435 18.1042C2.64453 18.5725 3.07638 19.0367 3.72504 19.1448C3.68988 18.7773 3.73878 18.4056 3.91254 18.0285C4.16206 18.4029 4.60395 18.8158 5.27351 19.2738L5.76837 17.9455C6.23323 18.6568 6.78724 19.3279 8.03257 19.9028L8.59038 18.2156C8.95582 18.5942 9.2989 18.9789 10.1389 19.2153L11.2892 17.502C12.3319 17.9666 13.2624 17.8633 14.0359 16.9844C14.6849 16.1413 15.325 15.2663 15.8411 13.9755L15.4624 12.5674C15.4365 11.9628 16.2114 11.6238 16.7138 12.2351L17.9247 14.555C18.1109 15.0819 18.1426 15.6458 17.805 16.3017L15.6921 19.5219C15.349 19.7837 14.9124 19.9957 14.0105 19.953C12.4558 19.7813 10.93 19.6422 9.73418 19.9059C8.35638 20.0666 6.97995 20.2586 5.60656 20.5249C4.84643 20.7579 4.10384 20.7726 3.41281 20.1477L3.41295 20.1478ZM5.75595 16.5085C5.38742 17.1348 5.20057 17.7535 5.09665 18.3681C4.17134 17.8653 3.98065 17.3292 3.88915 16.7893C3.54227 17.3 3.39228 17.8014 3.3124 18.2996C2.55945 17.9441 2.31209 17.4383 2.11348 16.9183L1.79276 17.4765L1.17987 15.2748C0.980275 14.7986 0.947275 14.3145 1.43112 13.8076L3.00677 12.2181L4.40009 12.2192C5.46068 11.3916 6.69673 10.6428 8.09862 9.96527L10.8671 6.73957C11.4761 6.20379 12.1045 6.10019 12.7373 6.08646L15.8332 5.94846C16.1123 6.04104 16.391 6.14219 16.6777 6.41721C18.4389 8.00627 19.4874 9.62735 19.2379 11.3056L17.8662 13.2026L17.3766 11.9848C16.771 11.097 16.0388 11.043 15.367 11.2826C14.8946 11.451 14.8198 11.934 14.8188 12.2966L15.1873 13.9122C14.4612 15.3785 13.7139 16.373 12.9469 16.9305C12.3488 17.1954 11.7284 16.9687 11.1007 16.5674C10.6881 17.2925 10.2673 17.8437 9.84335 18.3056C9.19779 17.9938 8.73663 17.4779 8.34509 16.8881C8.07213 17.7553 7.90043 18.5127 7.75657 19.2391C6.67676 18.5289 5.94002 17.6514 5.75595 16.5086V16.5085ZM3.19338 14.4961L4.43042 13.4019L3.9597 12.8293L3.18546 13.2102L2.5489 14.4748L3.19338 14.4961ZM10.0629 12.7604L11.886 12.5664L12.9737 11.9053C13.3243 11.5908 13.4779 11.2766 13.5621 10.9631L12.7614 8.99102C12.6069 8.7739 12.3997 8.72158 12.1179 8.89469L10.4328 10.5506L8.91588 10.938C8.74184 11.0564 8.67823 11.2005 8.77038 11.384L9.22015 12.3692C9.40699 12.6559 9.68543 12.7556 10.0629 12.7604ZM19.3525 12.2443L19.9041 11.4751C19.9802 10.6827 19.8844 10.03 19.654 9.41294C20.6509 9.13863 21.9261 9.61244 22.8742 10.6303C23.0428 10.8767 22.954 11.1971 22.6185 11.291C21.3019 11.5873 20.465 12.2845 19.3525 12.2442V12.2443ZM17.4692 6.14112C18.5545 5.7798 19.6516 5.67344 20.752 5.65488C20.9437 5.6524 21.2283 5.67035 21.1712 6.00002C20.7301 7.27502 19.9785 7.81549 19.1918 8.39885C18.7943 7.57915 18.1795 6.84166 17.4692 6.14112H17.4692ZM16.1691 3.42157C16.7449 3.26876 17.4541 3.26266 17.3715 3.69687L16.1234 5.29976L13.0628 5.43607C14.0591 4.45568 14.8849 3.76544 16.1691 3.42162V3.42157Z" fill="white"/>
</svg>
