<svg width="204" height="228" viewBox="0 0 204 228" fill="none" xmlns="http://www.w3.org/2000/svg">
<path d="M179.364 72.2583L151.281 33.5843L105.837 18.8561V55.7721L144.24 83.6751L179.364 72.2583ZM142.923 60.9363C142.69 61.8801 142.284 62.7725 141.726 63.5683C141.176 64.3375 140.467 64.9795 139.648 65.4509C138.828 65.9223 137.917 66.212 136.975 66.3004C134.97 66.5443 132.881 65.8728 130.708 64.2859C128.535 62.6991 127.261 60.9142 126.884 58.9313C126.684 58.009 126.685 57.0547 126.886 56.1327C127.087 55.2107 127.483 54.3425 128.048 53.5867C128.636 52.8137 129.363 52.1563 130.191 51.6479C131.1 51.0619 132.298 50.8529 133.787 51.0207C133.166 49.7308 132.928 48.2896 133.103 46.8686C133.297 45.4513 133.849 44.107 134.709 42.9631C135.339 42.0768 136.15 41.3345 137.089 40.7856C138.027 40.2368 139.072 39.8938 140.154 39.7796C142.447 39.4853 144.808 40.2251 147.237 41.9989C149.667 43.7725 151.038 45.7583 151.352 47.9564C151.518 49.0168 151.468 50.0998 151.206 51.1407C150.944 52.1815 150.475 53.1589 149.827 54.0142C148.998 55.1826 147.879 56.1158 146.582 56.7224C145.317 57.3115 143.896 57.4781 142.529 57.1973C143.071 58.6479 143.202 59.8942 142.923 60.9363ZM138.647 57.6344C138.704 58.0703 138.673 58.5131 138.555 58.9367C138.438 59.3602 138.236 59.7559 137.963 60.1003C137.544 60.6253 136.985 61.0205 136.35 61.2401C135.715 61.4597 135.031 61.4946 134.377 61.3409C133.724 61.1871 133.127 60.8509 132.656 60.3714C132.186 59.8919 131.861 59.2888 131.72 58.6321C131.671 58.1799 131.714 57.7226 131.844 57.2869C131.975 56.8512 132.191 56.4461 132.48 56.0952C132.723 55.7292 133.035 55.4148 133.4 55.1701C133.764 54.9254 134.174 54.7553 134.604 54.6696C135.06 54.6042 135.524 54.6352 135.966 54.7604C136.409 54.8857 136.821 55.1025 137.174 55.3968C137.567 55.6453 137.903 55.9733 138.16 56.3595C138.418 56.7457 138.592 57.1816 138.671 57.6392L138.647 57.6344ZM142.449 52.9448C141.413 53.0416 140.377 52.7572 139.535 52.1451C138.694 51.5329 138.105 50.635 137.878 49.6194C137.732 48.6342 138.065 47.5858 138.875 46.4742C139.477 45.5188 140.429 44.8367 141.527 44.5736C142.572 44.4709 143.618 44.7565 144.467 45.376C145.315 45.9955 145.905 46.9055 146.126 47.9325C146.213 49.0537 145.86 50.165 145.142 51.0303C144.36 52.1454 143.476 52.7837 142.491 52.9452L142.449 52.9448ZM98.2348 55.7721V18.8561L52.7906 33.5843L24.7071 72.2583L59.8318 83.6608L98.2348 55.7721ZM53.3468 47.087L68.4456 36.5204C69.4748 38.0365 70.1622 39.7582 70.4601 41.5662C70.8718 43.4668 70.5013 46.0451 69.3484 49.3011C68.6238 51.1827 68.0456 53.1174 67.6188 55.088C67.3552 56.5176 67.664 57.9935 68.4787 59.1975C69.0393 60.0616 69.893 60.6943 70.8828 60.9793C71.3744 61.0984 71.8866 61.1038 72.3805 60.9951C72.8744 60.8864 73.3371 60.6665 73.7332 60.3522C75.051 59.4304 75.6038 58.3108 75.3915 56.9933C75.1136 55.897 74.6299 54.8635 73.9663 53.9477L78.1806 51.002C79.4221 52.9278 80.1427 54.6809 80.3421 56.2614C80.7254 59.2704 79.4395 61.8043 76.4845 63.8632C74.1499 65.4976 71.8408 66.1501 69.5572 65.8207C67.2736 65.4913 65.3858 64.2639 63.8938 62.1384C62.7718 60.5788 62.214 58.6838 62.312 56.765C62.4791 55.0443 62.8968 53.3573 63.552 51.7575L64.4262 49.3107C64.9741 47.7807 65.3273 46.7022 65.4856 46.0753C65.644 45.4551 65.7018 44.8134 65.6569 44.1748L56.0307 50.9116L53.3468 47.087ZM79.1257 132.915H124.945L139.094 89.3381L102.035 62.4045L64.9772 89.3385L79.1257 132.915ZM114.693 95.0349C114.358 94.6519 113.94 94.3507 113.47 94.1547C113.001 93.9587 112.492 93.873 111.984 93.9042C110.375 93.9042 109.281 94.5045 108.701 95.7051C108.293 96.7656 108.092 97.8943 108.108 99.0305H102.986C103.071 96.7408 103.486 94.8911 104.23 93.4814C105.643 90.7954 108.152 89.4524 111.757 89.4524C114.607 89.4524 116.873 90.2443 118.555 91.8279C120.237 93.4116 121.065 95.4878 121.04 98.0567C121.064 99.9772 120.434 101.849 119.254 103.364C118.145 104.69 116.848 105.847 115.405 106.798L113.286 108.3C111.959 109.25 111.052 109.931 110.564 110.343C110.076 110.763 109.659 111.258 109.329 111.811H121.078V116.467H102.667C102.694 114.635 103.119 112.831 103.912 111.179C104.666 109.386 106.448 107.486 109.257 105.478C110.935 104.352 112.523 103.099 114.009 101.729C115.044 100.71 115.638 99.3243 115.662 97.8714C115.693 96.8384 115.348 95.8293 114.693 95.0306V95.0349ZM82.9742 94.313C84.1465 94.2901 85.3154 94.1789 86.4709 93.9803C87.4612 93.7821 88.3667 93.2846 89.0651 92.5551C89.5589 92.0035 89.914 91.3421 90.1011 90.6258C90.2135 90.2762 90.282 89.9139 90.3051 89.5473H94.7237V116.458H89.3026V97.9093H82.9746V94.3082L82.9742 94.313ZM78.2802 140.517L56.5917 170.416L102.035 185.144L147.48 170.416L125.791 140.517H78.2802ZM109.067 173.903C107.569 175.822 105.243 176.78 102.088 176.777C98.6987 176.777 96.1995 175.36 94.5907 172.525C93.3396 170.308 92.714 167.457 92.714 163.973C92.6933 162.298 92.7806 160.624 92.9754 158.961C93.1954 156.96 93.8073 155.023 94.7763 153.259C95.517 151.988 96.5514 150.913 97.7929 150.124C99.1341 149.305 100.684 148.893 102.254 148.936C104.753 148.936 106.745 149.569 108.231 150.837C108.969 151.478 109.571 152.26 110.001 153.138C110.432 154.017 110.681 154.972 110.735 155.948H105.49C105.462 155.436 105.289 154.941 104.991 154.523C104.707 154.107 104.32 153.771 103.868 153.55C103.416 153.328 102.914 153.228 102.411 153.259C100.691 153.259 99.467 154.224 98.7384 156.153C98.257 157.68 97.9822 159.266 97.9212 160.866C98.5318 160.121 99.3145 159.535 100.202 159.16C101.703 158.596 103.334 158.474 104.902 158.811C106.469 159.148 107.907 159.929 109.043 161.061C110.597 162.75 111.421 164.986 111.333 167.28C111.362 169.678 110.569 172.014 109.086 173.898L109.067 173.903ZM104.791 164.097C105.558 164.933 105.941 166.136 105.941 167.708C105.996 168.936 105.64 170.149 104.929 171.152C104.609 171.582 104.189 171.927 103.706 172.158C103.222 172.389 102.69 172.499 102.155 172.478C101.588 172.49 101.026 172.372 100.511 172.134C99.9967 171.896 99.5431 171.544 99.185 171.105C98.3881 170.102 97.9828 168.844 98.0447 167.565C98.0447 165.772 98.5641 164.473 99.603 163.669C100.278 163.133 101.117 162.845 101.978 162.852C102.514 162.84 103.045 162.944 103.536 163.158C104.027 163.372 104.465 163.691 104.82 164.092L104.791 164.097ZM152.264 119.394L163.372 122.72L161.472 129.157L152.264 119.394ZM146.562 90.8872L131.896 136.022L153.604 165.902L181.688 127.247V79.4895L146.562 90.8872ZM172.888 125.532L167.339 123.874L164.289 134.079L159.861 132.759L147.033 118.605L148.734 112.904L164.845 117.717L165.715 114.799L169.681 115.983L168.812 118.899L174.361 120.558L172.888 125.532ZM57.4372 90.8872L22.3125 79.4847V127.271L50.396 165.926L72.1036 136.046L57.4372 90.8872ZM28.9027 114.049L46.6052 108.471L44.7047 102.437L48.1396 101.354C48.5138 102.465 48.9714 103.547 49.5082 104.589C49.9906 105.472 50.7316 106.187 51.6319 106.637C52.3065 106.943 53.0443 107.083 53.7839 107.046C54.1505 107.048 54.516 107.005 54.872 106.918L56.1976 111.131L30.5418 119.209L28.9027 114.049ZM36.2618 137.396L34.6322 132.226L52.3348 126.649L50.4342 120.615L53.8695 119.532C54.2438 120.643 54.7012 121.724 55.2378 122.767C55.7199 123.651 56.461 124.365 57.3615 124.815C58.036 125.121 58.774 125.261 59.5138 125.223C59.8803 125.226 60.2457 125.183 60.6015 125.095L61.9275 129.309L36.2618 137.396Z" fill="#E02424"/>
<path d="M10.272 199.112H12.912C15.28 199.112 17.088 198.536 18.336 197.384C19.616 196.232 20.256 194.488 20.256 192.152C20.256 189.816 19.696 188.088 18.576 186.968C17.456 185.848 15.728 185.288 13.392 185.288C12.144 185.288 11.104 185.4 10.272 185.624V199.112ZM4.176 183.8L13.392 183.416C16.848 183.416 19.648 184.056 21.792 185.336C23.936 186.584 25.008 188.648 25.008 191.528C25.008 193.64 24.272 195.48 22.8 197.048C21.36 198.616 19.648 199.48 17.664 199.64V199.976C18.464 200.2 19.312 200.904 20.208 202.088C21.136 203.272 21.936 204.536 22.608 205.88C24.464 209.592 25.984 211.832 27.168 212.6C28.352 213.368 29.712 213.752 31.248 213.752L31.008 215.288H24.192C23.2 215.288 21.728 213.56 19.776 210.104C19.296 209.304 18.736 208.344 18.096 207.224C17.456 206.072 17.024 205.304 16.8 204.92C16.576 204.536 16.368 204.2 16.176 203.912C15.984 203.592 15.84 203.368 15.744 203.24C15.68 203.112 15.568 202.952 15.408 202.76C15.28 202.536 15.168 202.376 15.072 202.28C15.008 202.184 14.912 202.072 14.784 201.944C14.336 201.4 13.52 201.128 12.336 201.128H10.272V211.304C10.272 211.784 10.336 212.152 10.464 212.408C10.592 212.664 10.88 212.856 11.328 212.984L15.312 213.656L14.976 215.384C12.736 215.128 10.72 215 8.928 215C7.168 215 5.104 215.128 2.736 215.384L2.4 213.8C3.68 213.64 4.592 213.448 5.136 213.224C5.712 212.968 6 212.456 6 211.688V187.208C6 186.472 5.744 185.992 5.232 185.768C4.816 185.576 4.032 185.4 2.88 185.24L2.4 185.144L2.736 183.656C2.896 183.752 3.376 183.8 4.176 183.8ZM44.3719 212.744C46.2919 212.744 48.2119 212.056 50.1319 210.68L50.8999 211.736C47.9879 214.424 45.1719 215.768 42.4519 215.768C39.7639 215.768 37.5399 214.84 35.7799 212.984C34.0519 211.096 33.1879 208.6 33.1879 205.496C33.1879 202.392 34.0679 199.752 35.8279 197.576C37.5879 195.368 39.8599 194.264 42.6439 194.264C45.4599 194.264 47.5559 195.144 48.9319 196.904C50.3079 198.632 50.9959 200.984 50.9959 203.96L37.4599 204.92C37.7159 210.136 40.0199 212.744 44.3719 212.744ZM42.4039 196.232C40.7079 196.232 39.4599 196.92 38.6599 198.296C37.8599 199.64 37.4599 201.272 37.4599 203.192L46.6759 202.04C46.6759 198.168 45.2519 196.232 42.4039 196.232ZM60.7013 209.048C60.7013 210.552 60.9733 211.56 61.5173 212.072C62.0613 212.584 62.8773 212.84 63.9653 212.84C65.0853 212.84 66.3973 212.344 67.9013 211.352L68.6213 212.456C65.9333 214.664 63.7093 215.768 61.9493 215.768C58.5573 215.768 56.8613 213.768 56.8613 209.768V197.144H54.0773L53.8373 195.896L56.8613 195.032V191.816L60.7013 190.04V195.32L66.8453 194.888L66.4613 197.432L60.7013 197.24V209.048ZM82.2503 197.528C81.0343 197.528 79.5783 198.728 77.8823 201.128V211.784C77.8823 212.2 77.9463 212.504 78.0743 212.696C78.2023 212.856 78.4423 213 78.7943 213.128C79.3383 213.352 80.3303 213.528 81.7703 213.656L82.4903 213.752L82.1543 215.384C79.2743 215.128 77.2103 215 75.9622 215C74.7143 215 73.0343 215.128 70.9223 215.384L70.5383 213.944C71.7863 213.752 72.6343 213.544 73.0823 213.32C73.5623 213.064 73.8343 212.856 73.8983 212.696C73.9943 212.536 74.0423 212.248 74.0423 211.832V198.872C74.0423 197.912 73.7703 197.384 73.2263 197.288C72.6823 197.224 71.9783 197.272 71.1143 197.432L70.5863 197.528L70.3463 196.088C72.5863 195.096 74.6983 194.488 76.6823 194.264L77.4503 195.128C77.4503 196.152 77.5943 197.384 77.8823 198.824L79.4663 196.808C80.8423 195.112 82.2823 194.264 83.7863 194.264C84.4263 194.264 85.5623 194.568 87.1943 195.176C86.7463 197.704 86.2023 199.768 85.5623 201.368L84.2663 201.464C84.2663 200.312 84.0903 199.368 83.7383 198.632C83.4183 197.896 82.9223 197.528 82.2503 197.528ZM99.0435 215.768C95.9395 215.768 93.5235 214.84 91.7955 212.984C90.0675 211.128 89.2035 208.6 89.2035 205.4C89.2035 202.168 90.1155 199.512 91.9395 197.432C93.7955 195.32 96.2595 194.264 99.3315 194.264C102.436 194.264 104.868 195.208 106.628 197.096C108.388 198.952 109.268 201.48 109.268 204.68C109.268 207.848 108.34 210.488 106.484 212.6C104.628 214.712 102.148 215.768 99.0435 215.768ZM93.4755 204.488C93.4755 207.496 94.0355 209.8 95.1555 211.4C96.2755 213 97.8435 213.8 99.8595 213.8C103.252 213.8 104.948 211.048 104.948 205.544C104.948 202.568 104.372 200.28 103.22 198.68C102.1 197.048 100.532 196.232 98.5155 196.232C95.1555 196.232 93.4755 198.984 93.4755 204.488ZM125.739 185.75L134.199 185.39C141.519 185.39 145.179 188.15 145.179 193.67C145.179 196.16 144.159 198.29 142.119 200.06C140.079 201.83 137.754 202.715 135.144 202.715C134.724 202.715 134.199 202.58 133.569 202.31C132.939 202.04 132.474 201.8 132.174 201.59L131.994 200.87C132.414 200.99 132.909 201.05 133.479 201.05C138.309 201.05 140.724 198.785 140.724 194.255C140.724 189.515 138.459 187.145 133.929 187.145C133.119 187.145 132.264 187.25 131.364 187.46V211.535C131.364 211.985 131.424 212.33 131.544 212.57C131.664 212.81 131.934 212.99 132.354 213.11L136.089 213.74L135.774 215.36C133.674 215.12 131.784 215 130.104 215C128.454 215 126.519 215.12 124.299 215.36L123.984 213.875C125.184 213.725 126.039 213.545 126.549 213.335C127.089 213.095 127.359 212.615 127.359 211.895V188.945C127.359 188.255 127.119 187.805 126.639 187.595C126.249 187.415 125.514 187.25 124.434 187.1L123.984 187.01L124.299 185.615C124.449 185.705 124.929 185.75 125.739 185.75ZM154.319 212.03C154.319 212.42 154.349 212.69 154.409 212.84C154.499 212.99 154.694 213.14 154.994 213.29C155.564 213.59 156.284 213.8 157.154 213.92L157.604 214.01L157.289 215.36C154.739 215.12 153.134 215 152.474 215C151.814 215 150.254 215.12 147.794 215.36L147.434 214.01C148.604 213.83 149.399 213.635 149.819 213.425C150.269 213.185 150.524 212.99 150.584 212.84C150.674 212.69 150.719 212.42 150.719 212.03V187.01C150.719 186.14 150.464 185.63 149.954 185.48C149.534 185.42 148.844 185.48 147.884 185.66L147.434 185.75L147.209 184.355C149.579 183.365 151.844 182.81 154.004 182.69L154.634 183.5C154.424 184.4 154.319 185.27 154.319 186.11C154.319 186.95 154.319 187.535 154.319 187.865V212.03ZM164.407 209.96C164.407 210.8 164.677 211.52 165.217 212.12C165.757 212.72 166.537 213.02 167.557 213.02C168.577 213.02 169.867 212.42 171.427 211.22V206.09L167.962 206.72C165.592 207.11 164.407 208.19 164.407 209.96ZM175.027 202.13V211.31C175.027 212.39 175.612 212.93 176.782 212.93L177.997 212.885L178.357 214.19C176.887 214.52 175.327 215.03 173.677 215.72C172.567 214.97 171.862 213.965 171.562 212.705C170.212 213.845 169.102 214.625 168.232 215.045C167.392 215.495 166.552 215.72 165.712 215.72C164.182 215.72 162.952 215.24 162.022 214.28C161.122 213.32 160.672 212.03 160.672 210.41C160.672 208.76 161.257 207.545 162.427 206.765C163.597 205.955 165.217 205.445 167.287 205.235L171.427 204.785V202.76C171.427 201.05 171.172 199.76 170.662 198.89C170.152 198.02 169.222 197.585 167.872 197.585C166.552 197.585 165.562 197.765 164.902 198.125C164.722 198.755 164.632 200.135 164.632 202.265L162.742 202.805C162.082 200.615 161.707 198.935 161.617 197.765C164.857 196.295 167.197 195.56 168.637 195.56C170.857 195.56 172.477 196.1 173.497 197.18C174.517 198.23 175.027 199.88 175.027 202.13ZM182.096 225.98H181.556C180.866 224.84 180.386 223.385 180.116 221.615L180.926 221.21C181.766 221.6 182.531 221.795 183.221 221.795C184.661 221.795 185.786 220.925 186.596 219.185L188.486 215.045L181.286 199.115C180.926 198.365 180.641 197.9 180.431 197.72C180.221 197.51 179.786 197.39 179.126 197.36L178.856 195.965C180.776 196.175 182.261 196.28 183.311 196.28C184.391 196.28 185.891 196.175 187.811 195.965L187.721 197.27C186.761 197.42 186.071 197.57 185.651 197.72C185.231 197.84 185.021 198.095 185.021 198.485C185.021 198.665 185.066 198.875 185.156 199.115L189.881 209.915L190.106 211.04H190.376L190.691 209.69L194.921 199.16C195.041 198.92 195.101 198.71 195.101 198.53C195.101 198.14 194.861 197.87 194.381 197.72L192.356 197.315L192.266 196.01C193.766 196.19 195.026 196.28 196.046 196.28C197.066 196.28 198.326 196.19 199.826 196.01L199.511 197.405C198.851 197.435 198.416 197.555 198.206 197.765C197.996 197.945 197.741 198.41 197.441 199.16L187.946 221.255C186.596 224.405 184.646 225.98 182.096 225.98Z" fill="#E02424"/>
</svg>
