<svg width="24" height="24" viewBox="0 0 24 24" fill="none" xmlns="http://www.w3.org/2000/svg">
<path d="M21.5325 2.02148C19.0821 2.42986 16.2462 4.20895 13.4794 6.56395C11.033 8.64633 8.66084 11.1916 6.78387 13.7032L7.65912 14.412C8.27918 13.5807 8.95896 12.7427 9.6784 11.9184L9.3109 11.5334L9.92121 10.9508C10.1538 11.2076 10.4007 11.4488 10.6519 11.6998C10.112 13.5173 8.8144 15.4376 7.24493 16.9746C7.47063 17.1513 7.68017 17.3972 7.7989 17.618C9.48753 15.9846 10.8785 13.9386 11.4707 11.8951C13.5259 11.1027 14.601 9.60108 15.6724 7.63538C18.4607 7.2278 20.4797 5.72813 21.6246 4.35483C21.865 5.00123 22.101 5.64839 22.2326 6.2813C22.4139 7.15238 22.4088 7.97273 21.9988 8.78067C21.257 10.2426 19.8543 10.9375 18.7621 11.6698C18.216 12.0359 17.7174 12.4195 17.5159 13.017C17.3143 13.6144 17.5001 14.3099 18.0612 15.093C18.6595 15.928 19.5343 16.5351 20.1249 17.1349C20.2825 17.295 20.4175 17.4523 20.526 17.6067C20.6239 17.587 20.7248 17.5765 20.8281 17.5765C21.0894 17.5765 21.3361 17.6427 21.5527 17.7587C21.5466 17.7413 21.5407 17.7237 21.5342 17.7064C21.3639 17.2561 21.0622 16.8845 20.7261 16.543C20.0538 15.8602 19.2233 15.2663 18.747 14.6016C18.2651 13.9288 18.2223 13.5626 18.3154 13.2865C18.4085 13.0104 18.7279 12.7084 19.2319 12.3705C20.2399 11.6946 21.8658 10.9075 22.7513 9.16233C23.2666 8.14669 23.2632 7.09205 23.0588 6.10945C22.7237 4.5758 22.1408 3.32367 21.5326 2.02148H21.5325ZM20.9326 2.63892L21.292 3.41048C20.3748 4.69261 18.4181 6.3637 15.6145 6.79495L15.4184 6.4388C17.1792 5.07698 18.9256 4.02614 20.4309 3.48112L20.2014 2.96222L20.9326 2.63892ZM14.4465 6.5137C14.6114 6.75717 14.7782 7.02441 14.9127 7.26994C13.8911 9.14409 13.0061 10.3853 11.2313 11.086L10.8123 10.667C11.8613 9.55158 13.0641 8.39048 14.1865 7.4272L13.9254 7.06519L14.4465 6.5137ZM6.19409 14.3114L5.78112 14.8214L6.87406 15.7064L7.28693 15.1963L6.19409 14.3114ZM5.25003 15.4771L0.812744 20.9572C0.814291 20.9716 0.821182 21.0104 0.851557 21.0699C0.916947 21.198 1.07173 21.3823 1.25384 21.5298C1.43599 21.6773 1.64853 21.7905 1.78742 21.8277C1.85201 21.8451 1.89129 21.8437 1.90573 21.8421L4.23635 18.9638C4.1044 18.4036 4.22182 17.79 4.60971 17.311C4.99751 16.8321 5.57328 16.5894 6.14876 16.602L6.34296 16.3622L5.25003 15.4771ZM6.09331 17.4396C5.78356 17.4421 5.47803 17.5793 5.26549 17.8418C4.88768 18.3084 4.95823 18.9804 5.42487 19.3582C5.89151 19.736 6.56346 19.6653 6.94128 19.1987C6.96331 19.1715 6.98365 19.1435 7.00268 19.1149L7.82473 19.2663L7.4937 21.0642L8.32339 21.217L8.80737 18.5893L7.15784 18.2856C7.10674 18.057 6.98018 17.8431 6.78176 17.6824C6.57762 17.5171 6.3342 17.4376 6.09331 17.4396ZM20.8281 18.4201C20.4349 18.4201 20.125 18.73 20.125 19.1233C20.125 19.3651 20.2425 19.5752 20.4243 19.7013C20.4016 19.9095 20.3614 20.1655 20.2869 20.4068C20.125 20.8785 19.9027 21.2112 19.4669 21.1186C19.1371 20.9922 19.103 20.6507 19.1215 20.3604L19.7138 20.3504L18.4625 18.437C18.3734 18.7585 18.2052 20.0542 18.293 20.7811C18.3223 20.9955 18.3875 21.2369 18.5441 21.4592C18.7005 21.6815 18.9605 21.8702 19.2831 21.9422C19.7719 22.0513 20.2347 21.9047 20.5314 21.6305C20.8281 21.3562 20.9872 20.9989 21.0932 20.6557C21.2055 20.2918 21.2553 19.9299 21.2779 19.6672C21.4335 19.5391 21.5313 19.3444 21.5313 19.1233C21.5313 18.73 21.2215 18.4202 20.8282 18.4202L20.8281 18.4201Z" fill="white"/>
</svg>
