<svg width="90" height="90" viewBox="0 0 90 90" fill="none" xmlns="http://www.w3.org/2000/svg">
<circle cx="45" cy="45" r="44" fill="#F2EDED" stroke="#0A0717" stroke-width="2"/>
<path d="M33 67.4992C32.1765 67.4992 31.3575 67.2742 30.633 66.8287C29.9813 66.4243 29.4434 65.8604 29.0702 65.1904C28.697 64.5203 28.5007 63.7662 28.5 62.9992V26.9992C28.5 25.4377 29.31 23.9887 30.633 23.1697C31.2862 22.7681 32.0307 22.5393 32.7967 22.5046C33.5626 22.47 34.3248 22.6307 35.0115 22.9717L71.0115 40.9717C71.759 41.3461 72.3875 41.9211 72.8267 42.6324C73.266 43.3437 73.4986 44.1632 73.4986 44.9992C73.4986 45.8352 73.266 46.6547 72.8267 47.366C72.3875 48.0773 71.759 48.6523 71.0115 49.0267L35.0115 67.0267C34.3815 67.3417 33.684 67.4992 33 67.4992Z" fill="black"/>
</svg>
