<svg width="30" height="30" viewBox="0 0 30 30" fill="none" xmlns="http://www.w3.org/2000/svg">
<rect width="30" height="30" rx="4" fill="#0D0A1F"/>
<path d="M17.625 25.1512V22.3892C20.6768 21.3054 22.875 18.423 22.875 15C22.875 11.5782 20.6769 8.69456 17.625 7.61076V4.84872C22.1509 6.01705 25.5 10.1114 25.5 15C25.5 19.8886 22.1509 23.9842 17.625 25.1512ZM15 25.4946L9.74998 20.2474H5.81248C5.08699 20.2474 4.5 19.6606 4.5 18.9356V11.0645C4.5 10.3394 5.08707 9.75272 5.81248 9.75272H9.74998L15 4.50542C15 4.50542 16.3124 4.34144 16.3124 5.81723V24.1828C16.3125 25.6586 15 25.4946 15 25.4946ZM13.6875 9.75268L11.0625 12.3763H7.12497V17.6236H11.0625L13.6875 20.2474V9.75268ZM21.5625 15C21.5625 17.4417 19.8859 19.4761 17.625 20.0615V17.2597C18.4069 16.805 18.9375 15.9685 18.9375 14.9999C18.9375 14.0315 18.4068 13.1949 17.625 12.7401V9.9384C19.886 10.5239 21.5625 12.5583 21.5625 15Z" fill="#F2EDED"/>
</svg>
