<svg width="22" height="22" viewBox="0 0 22 22" fill="none" xmlns="http://www.w3.org/2000/svg">
<path d="M8.56108 0.078125L7.71583 0.305187L8.26221 2.34275C7.0511 2.72131 5.90346 3.35773 4.90624 4.25291L3.43108 2.77784L2.81149 3.39753L4.28224 4.86819C3.36972 5.85842 2.71596 7.00241 2.32225 8.21239L0.338832 7.68069L0.111816 8.52739L2.09229 9.05769C1.80836 10.3374 1.80368 11.6666 2.07611 12.9483L0.111863 13.4741L0.338879 14.3208L2.29882 13.7949C2.61255 14.7898 3.10104 15.7414 3.76366 16.6016L2.35882 19.0713L1.57085 20.4585L2.95647 19.669L5.42477 18.2642C6.28774 18.9305 7.24277 19.4215 8.24168 19.7364L7.71574 21.6978L8.56104 21.9233L9.08688 19.959C10.3687 20.2312 11.6977 20.2255 12.9775 19.9414L13.5078 21.9233L14.3545 21.6978L13.8227 19.7114C15.0326 19.3177 16.1766 18.6654 17.1669 17.753L18.6376 19.2236L19.2573 18.604L17.7821 17.1289C18.6769 16.132 19.3122 14.9849 19.6908 13.7743L21.7313 14.3208L21.9569 13.4741L19.912 12.9263C20.1783 11.6586 20.1734 10.3453 19.8959 9.07958L21.957 8.52739L21.7314 7.68069L19.6676 8.23438C19.3521 7.25628 18.8669 6.32234 18.2129 5.47606L19.6178 3.00781L20.4072 1.62205L19.0201 2.41161L16.5518 3.81645C15.7082 3.16606 14.7765 2.68217 13.8023 2.36773L14.3546 0.305234L13.5078 0.078125L12.9556 2.13922C11.69 1.86148 10.3766 1.85563 9.10886 2.12159L8.56108 0.078125ZM18.0092 4.0625L12.9336 12.9834L12.8984 13.0039L10.9839 11.0879L4.01261 18.0591L3.91014 18.1177L9.02538 9.12945L10.9838 11.0879L18.0093 4.0625H18.0092ZM10.9927 4.55909C12.0173 4.55909 13.0419 4.80125 13.9736 5.28425L8.50685 8.39403L8.40279 8.45403L8.34279 8.55809L5.23732 14.0146C3.97441 11.5753 4.36469 8.50198 6.4106 6.45603C7.67575 5.19097 9.33471 4.55909 10.9927 4.55909ZM16.7452 8.05569C18.0105 10.4957 17.6203 13.5716 15.5732 15.6186C13.5266 17.6653 10.4515 18.0564 8.01171 16.7921L13.4697 13.6851L13.5752 13.6265L13.6338 13.521L16.7451 8.05578L16.7452 8.05569Z" fill="white"/>
</svg>
