<svg width="16" height="22" viewBox="0 0 16 22" fill="none" xmlns="http://www.w3.org/2000/svg">
<path d="M7.95316 0.0457764C6.95941 0.0457764 6.05473 0.551089 5.58598 1.34093L5.37973 1.68875L5.02348 1.4975C4.69066 1.31703 4.31098 1.2214 3.93129 1.2214C2.60473 1.2214 1.5266 2.32625 1.5266 3.71562C1.5266 4.95781 2.39848 5.99374 3.56566 6.18124L3.92191 6.23749V8.74062C6.63598 8.22031 9.35942 8.19687 12.0782 8.74062V5.47343L12.3032 5.35156C13.0391 4.9625 13.5266 4.12812 13.5266 3.18828C13.5266 1.83828 12.5563 0.792026 11.3985 0.792026C11.0938 0.792026 10.7891 0.867495 10.5125 1.01328L10.2219 1.16328L10.0063 0.924683C9.50004 0.372964 8.75004 0.0457764 7.95316 0.0457764ZM8.00004 9.17656C6.80004 9.17656 5.60473 9.28906 4.40473 9.50468C4.36254 9.78593 4.34379 10.0766 4.34379 10.3766C4.34379 11.7359 4.77504 12.9641 5.45004 13.8312C6.12504 14.6984 7.02035 15.2047 8.00004 15.2047C8.97973 15.2047 9.87504 14.6984 10.55 13.8312C11.225 12.9641 11.6563 11.7359 11.6563 10.3766C11.6563 10.0766 11.6329 9.78125 11.5954 9.5C10.3954 9.27968 9.20004 9.17187 8.00004 9.17656ZM5.78285 15.3125L1.6016 16.7047L0.290039 21.9547H11.075L10.3954 17.1875L11.2297 17.0656L11.9282 21.9547H15.711L14.3985 16.7047L10.2172 15.3125C9.57035 15.7766 8.81098 16.0484 8.00004 16.0484C7.1891 16.0484 6.42973 15.7766 5.78285 15.3125ZM9.03129 17.7828C9.09285 17.7828 9.15381 17.7949 9.21068 17.8185C9.26755 17.842 9.31923 17.8766 9.36276 17.9201C9.40629 17.9636 9.44082 18.0153 9.46437 18.0722C9.48793 18.129 9.50005 18.19 9.50004 18.2516C9.50005 18.3131 9.48793 18.3741 9.46437 18.4309C9.44082 18.4878 9.40629 18.5395 9.36276 18.583C9.31923 18.6266 9.26755 18.6611 9.21068 18.6846C9.15381 18.7082 9.09285 18.7203 9.03129 18.7203C8.96973 18.7203 8.90877 18.7082 8.8519 18.6846C8.79502 18.6611 8.74335 18.6266 8.69982 18.583C8.65629 18.5395 8.62176 18.4878 8.59821 18.4309C8.57465 18.3741 8.56253 18.3131 8.56254 18.2516C8.56253 18.19 8.57465 18.129 8.59821 18.0722C8.62176 18.0153 8.65629 17.9636 8.69982 17.9201C8.74335 17.8766 8.79502 17.842 8.8519 17.8185C8.90877 17.7949 8.96973 17.7828 9.03129 17.7828ZM9.35942 19.9391C9.48374 19.9391 9.60296 19.9884 9.69087 20.0764C9.77878 20.1643 9.82817 20.2835 9.82817 20.4078C9.82817 20.5321 9.77878 20.6514 9.69087 20.7393C9.60296 20.8272 9.48374 20.8766 9.35942 20.8766C9.23509 20.8766 9.11587 20.8272 9.02796 20.7393C8.94005 20.6514 8.89067 20.5321 8.89067 20.4078C8.89067 20.2835 8.94005 20.1643 9.02796 20.0764C9.11587 19.9884 9.23509 19.9391 9.35942 19.9391Z" fill="white"/>
</svg>
