<svg width="24" height="24" viewBox="0 0 24 24" fill="none" xmlns="http://www.w3.org/2000/svg">
<g clip-path="url(#clip0_11_16570)">
<path d="M11.9927 0.897905C11.5253 0.901374 11.0578 1.01416 10.6143 1.21872V1.88228H13.3696V1.21581C12.929 1.00375 12.4627 0.894483 11.9927 0.897905ZM3.0483 1.56447C2.29151 1.56512 1.56809 1.8265 0.981445 2.33055L1.15432 2.97508L3.81588 2.26164L3.64455 1.62151C3.44477 1.58706 3.24588 1.56419 3.0483 1.56433V1.56447ZM20.9414 1.56447C20.7441 1.56423 20.5449 1.58716 20.3452 1.62156L20.1739 2.26169L22.8354 2.97512L23.0084 2.33059C22.4215 1.82598 21.6987 1.56517 20.9414 1.56447ZM11.2838 2.68061V7.32855C11.2608 7.38236 11.2388 7.43692 11.2163 7.4912H12.728C12.7181 7.4673 12.7088 7.4432 12.6987 7.41934V2.68066L11.2838 2.68061ZM3.37362 3.2065L2.00684 3.57278L3.2344 8.15176C3.23102 8.1767 3.22887 8.20155 3.22559 8.22648L4.68462 7.8339C4.64918 7.78773 4.61351 7.74189 4.57765 7.69619L3.37362 3.2065ZM20.6147 3.2065L19.4121 7.69619C19.376 7.74226 19.3409 7.78891 19.3053 7.83541L20.7627 8.22508C20.7596 8.20108 20.7572 8.17726 20.7539 8.15326L21.9815 3.57264L20.6148 3.20645L20.6147 3.2065ZM10.7578 8.36716C10.4216 8.99369 9.72705 9.4112 8.91213 9.56833V10.0766C9.52282 9.98744 10.1332 9.92711 10.7432 9.8935C10.9374 9.39344 11.4261 9.03508 11.9913 9.03508C12.5591 9.03508 13.0499 9.39695 13.2422 9.90086C13.8525 9.93705 14.4624 9.99775 15.0717 10.081V9.56828C14.2563 9.41134 13.5611 8.99397 13.2246 8.36711H10.7578V8.36716ZM5.35254 8.56347L2.97223 9.20064C2.81004 9.89383 2.24754 10.4784 1.50002 10.8413L1.63188 11.335C2.19907 11.0968 2.77273 10.8807 3.35304 10.6875C3.40849 10.1513 3.78785 9.67426 4.33601 9.52736C4.42451 9.50364 4.51273 9.49 4.60113 9.48489C5.05751 9.4585 5.49584 9.67192 5.76129 10.0343C6.35988 9.90841 6.96551 9.80739 7.5791 9.73539L7.44879 9.24611C6.61976 9.30564 5.83971 9.0828 5.35254 8.56347ZM18.6357 8.56347C18.1489 9.08247 17.3695 9.30526 16.541 9.24606L16.4092 9.73534C17.023 9.80739 17.6283 9.90831 18.2271 10.0342C18.4925 9.67192 18.9309 9.45845 19.3872 9.4848C19.4756 9.48995 19.5654 9.50355 19.6538 9.52731C20.2021 9.67422 20.5815 10.1512 20.6368 10.6875C21.2173 10.8807 21.7907 11.0967 22.358 11.335L22.4898 10.8413C21.7424 10.4784 21.1798 9.89383 21.0176 9.20064L18.6357 8.56347ZM11.9912 9.91112C11.7316 9.91112 11.5313 10.1115 11.5313 10.3711C11.5313 10.6306 11.7316 10.8325 11.9913 10.8325C12.2509 10.8325 12.4526 10.6306 12.4526 10.3711C12.4526 10.1114 12.2509 9.91108 11.9912 9.91108V9.91112ZM4.70215 10.3564C4.68705 10.3559 4.67215 10.3568 4.65677 10.3578C4.62584 10.36 4.59434 10.3656 4.56302 10.374C4.31224 10.4412 4.16913 10.6871 4.2363 10.9379C4.30352 11.1887 4.54952 11.3304 4.8003 11.2631C5.05109 11.196 5.19415 10.9499 5.12702 10.6992C5.07659 10.5113 4.92579 10.3842 4.74757 10.3608C4.73276 10.3589 4.71734 10.357 4.7022 10.3564H4.70215ZM19.2876 10.3578C19.2724 10.3583 19.257 10.3589 19.2422 10.3608C19.0639 10.3842 18.9131 10.5113 18.8628 10.6992C18.7956 10.9499 18.9371 11.196 19.188 11.2631C19.4388 11.3304 19.6848 11.1887 19.7519 10.938C19.8191 10.6872 19.6775 10.4412 19.4267 10.3741C19.3797 10.3615 19.3331 10.3566 19.2876 10.3579L19.2876 10.3578ZM10.7138 10.768C10.5535 10.7775 10.3935 10.7884 10.2334 10.8017C9.42663 14.9728 10.0094 19.5963 11.9839 23.1123C13.9562 19.099 14.5699 14.8712 13.7446 10.812C13.5844 10.7984 13.4241 10.7871 13.2641 10.7768C13.1352 11.1751 12.8231 11.4951 12.4291 11.6337V19.2304H11.5533V11.6337C11.1563 11.494 10.8408 11.1706 10.7139 10.768L10.7138 10.768ZM6.49216 10.7797C6.33279 10.8085 6.17445 10.8397 6.0161 10.8721C5.99782 11.2935 5.77845 11.6861 5.43157 11.9238L7.39751 19.2627L6.55221 19.4897L4.58496 12.151C4.1681 12.119 3.78368 11.891 3.55666 11.5386C3.40423 11.5896 3.25254 11.6422 3.10104 11.6968C3.35416 15.8313 5.04227 19.7563 7.98635 23.1226C8.98338 19.2155 8.35066 14.5994 6.49221 10.7799L6.49216 10.7797ZM17.4975 10.7797C15.6386 14.5994 15.0048 19.2153 16.0019 23.1225C18.9461 19.7562 20.6327 15.8314 20.8857 11.6967C20.7348 11.6424 20.5834 11.5896 20.4316 11.5386C20.2045 11.8903 19.8213 12.1187 19.4048 12.1509L17.4375 19.4897L16.5908 19.2627L18.5582 11.9238C18.2107 11.6861 17.9905 11.2939 17.9722 10.872C17.8143 10.8398 17.6566 10.8085 17.4976 10.7798L17.4975 10.7797Z" fill="white"/>
</g>
<defs>
<clipPath id="clip0_11_16570">
<rect width="24" height="24" fill="white"/>
</clipPath>
</defs>
</svg>
