<svg width="24" height="24" viewBox="0 0 24 24" fill="none" xmlns="http://www.w3.org/2000/svg">
<path d="M3.94056 0.835881L4.37649 3.43487L2.34765 1.54055H2.34756L1.69046 2.19751L3.49159 4.12665L1.03674 3.73983L3.50682 7.30749L6.27048 7.10293L14.0744 15.4614L11.7799 14.9978L15.4232 17.8778L9.90652 17.2067L13.8751 18.8589L11.8661 19.6534L14.8763 20.5895L13.289 21.7783L21.8404 22.7551L23.1733 23.1698L22.9258 22.3738L22.7004 21.6489L21.739 13.1075L20.5252 14.6541L19.6572 11.8622L18.8584 13.8825L17.2095 9.50119L17.1219 14.6806L14.1332 10.3974L14.6254 13.0034L7.32343 6.18591L7.53887 3.2753L3.94065 0.835693L3.94056 0.835881ZM12.5751 3.34004L19.2648 10.6593L20.7091 11.3607L20.2261 8.4339L12.5751 3.34004ZM9.6512 3.94051L14.0092 9.34215L15.719 9.29832L15.0236 7.64855L9.65124 3.94046L9.6512 3.94051ZM1.96956 9.97894L7.51965 19.6734L10.1162 20.5999L9.72559 18.8972L1.96956 9.97894ZM6.28754 11.0608L8.48242 14.9567L10.7126 15.8343L9.90493 13.8815L6.28754 11.0608ZM19.5582 14.4946L21.8419 21.8383L14.4983 19.5546L18.1245 18.1207L19.5582 14.4946V14.4946Z" fill="white"/>
</svg>
