<svg width="210" height="140" viewBox="0 0 210 140" fill="none" xmlns="http://www.w3.org/2000/svg">
<rect x="0.5" y="20.5" width="209" height="119" rx="29.5" fill="#0D0A1F" stroke="#FCF75E"/>
<path d="M61.18 48.2C62.0467 48.2 62.8533 47.96 63.6 47.48C64.3467 47 65.0667 46.36 65.76 45.56L66.3 46.02C65.5933 46.9533 64.7733 47.72 63.84 48.32C62.9067 48.9067 61.8267 49.2 60.6 49.2H60.58C59.62 49.2 58.7267 49.0333 57.9 48.7C57.0733 48.3533 56.3533 47.8733 55.74 47.26C55.1267 46.6467 54.6467 45.9267 54.3 45.1C53.9667 44.26 53.8 43.3533 53.8 42.38C53.8 41.3533 53.98 40.42 54.34 39.58C54.7133 38.7267 55.22 37.9867 55.86 37.36C56.5133 36.7333 57.2667 36.2533 58.12 35.92C58.9867 35.5733 59.9133 35.4 60.9 35.4C61.6067 35.4 62.2333 35.48 62.78 35.64C63.3267 35.8 63.8 35.9867 64.2 36.2L64.5 35.6H65.2C65.2533 36.28 65.32 37.04 65.4 37.88C65.48 38.7067 65.58 39.4333 65.7 40.06L65.04 40.26C64.76 39.54 64.46 38.9267 64.14 38.42C63.82 37.9 63.48 37.48 63.12 37.16C62.7733 36.8267 62.4067 36.5867 62.02 36.44C61.6333 36.28 61.24 36.2 60.84 36.2C60.0267 36.2 59.34 36.4733 58.78 37.02C58.22 37.5667 57.8 38.3 57.52 39.22C57.24 40.1267 57.1 41.1267 57.1 42.22C57.1 43.3 57.24 44.2933 57.52 45.2C57.8133 46.1067 58.26 46.8333 58.86 47.38C59.4733 47.9267 60.2467 48.2 61.18 48.2ZM72.4914 39.2C73.4781 39.2 74.3514 39.4 75.1114 39.8C75.8847 40.1867 76.4914 40.7533 76.9314 41.5C77.3714 42.2467 77.5914 43.1467 77.5914 44.2C77.5914 45.2533 77.3714 46.1533 76.9314 46.9C76.4914 47.6467 75.8847 48.22 75.1114 48.62C74.3514 49.0067 73.4781 49.2 72.4914 49.2C71.5047 49.2 70.6247 49.0067 69.8514 48.62C69.0914 48.22 68.4914 47.6467 68.0514 46.9C67.6114 46.1533 67.3914 45.2533 67.3914 44.2C67.3914 43.1467 67.6114 42.2467 68.0514 41.5C68.4914 40.7533 69.0914 40.1867 69.8514 39.8C70.6247 39.4 71.5047 39.2 72.4914 39.2ZM72.5914 48.5C73.0581 48.5 73.4181 48.3067 73.6714 47.92C73.9381 47.52 74.1247 47.0133 74.2314 46.4C74.3381 45.7867 74.3914 45.16 74.3914 44.52C74.3914 43.48 74.2914 42.62 74.0914 41.94C73.8914 41.26 73.6381 40.7533 73.3314 40.42C73.0247 40.0733 72.7114 39.9 72.3914 39.9C71.9381 39.9 71.5781 40.1 71.3114 40.5C71.0447 40.8867 70.8581 41.3867 70.7514 42C70.6447 42.6 70.5914 43.2267 70.5914 43.88C70.5914 44.9067 70.6914 45.7667 70.8914 46.46C71.0914 47.14 71.3447 47.6533 71.6514 48C71.9714 48.3333 72.2847 48.5 72.5914 48.5ZM95.793 48.3H96.793V49H91.693V48.3H92.493L92.693 48.1V42C92.693 41.36 92.5996 40.92 92.413 40.68C92.2263 40.4267 91.9396 40.3 91.553 40.3C91.1396 40.3 90.7663 40.4533 90.433 40.76C90.0996 41.0667 89.7196 41.6133 89.293 42.4V48.1L89.493 48.3H90.293V49H85.393V48.3H86.193L86.393 48.1V42C86.393 41.36 86.2996 40.92 86.113 40.68C85.9263 40.4267 85.6396 40.3 85.253 40.3C84.8396 40.3 84.4663 40.4533 84.133 40.76C83.7996 41.0667 83.4196 41.6133 82.993 42.4V48.1L83.193 48.3H83.993V49H78.893V48.3H79.893L80.093 48.1V40.3L79.893 40.1H78.893V39.4C79.2396 39.4 79.633 39.4 80.073 39.4C80.5263 39.3867 80.973 39.3667 81.413 39.34C81.853 39.3 82.2463 39.2533 82.593 39.2L82.793 39.4V41.1H82.993C83.2996 40.5667 83.693 40.12 84.173 39.76C84.6663 39.3867 85.373 39.2 86.293 39.2C87.1596 39.2 87.8263 39.3867 88.293 39.76C88.773 40.12 89.0796 40.5733 89.213 41.12C89.5196 40.5733 89.933 40.12 90.453 39.76C90.9863 39.3867 91.6996 39.2 92.593 39.2C93.2863 39.2 93.853 39.32 94.293 39.56C94.733 39.7867 95.0596 40.1 95.273 40.5C95.4863 40.8867 95.593 41.32 95.593 41.8V48.1L95.793 48.3ZM104.895 39.2C105.761 39.2 106.528 39.4 107.195 39.8C107.861 40.2 108.381 40.7733 108.755 41.52C109.128 42.2533 109.315 43.1333 109.315 44.16C109.315 45.1867 109.128 46.08 108.755 46.84C108.381 47.5867 107.861 48.1667 107.195 48.58C106.528 48.9933 105.761 49.2 104.895 49.2C104.161 49.2 103.541 49.0333 103.035 48.7C102.541 48.3533 102.168 47.92 101.915 47.4V53.1L102.115 53.3H103.715V54H97.8145V53.3H98.8145L99.0145 53.1V40.32L98.8145 40.12H97.8145V39.42C98.1612 39.42 98.5545 39.42 98.9945 39.42C99.4345 39.4067 99.8745 39.3867 100.315 39.36C100.768 39.32 101.168 39.2733 101.515 39.22L101.715 39.42V41H101.915C102.168 40.5333 102.555 40.12 103.075 39.76C103.595 39.3867 104.201 39.2 104.895 39.2ZM104.215 48.1C104.775 48.1 105.228 47.8133 105.575 47.24C105.935 46.6533 106.115 45.7067 106.115 44.4C106.115 43.0933 105.935 42.0867 105.575 41.38C105.228 40.66 104.775 40.3 104.215 40.3C103.868 40.3 103.488 40.4533 103.075 40.76C102.675 41.0667 102.288 41.6467 101.915 42.5V45.9C102.288 46.7533 102.675 47.3333 103.075 47.64C103.488 47.9467 103.868 48.1 104.215 48.1ZM118.932 49.2C118.478 49.2 118.085 49.1267 117.752 48.98C117.432 48.8333 117.152 48.5733 116.912 48.2V42.9C116.912 42.06 116.772 41.3867 116.492 40.88C116.225 40.36 115.692 40.1 114.892 40.1C114.598 40.1 114.325 40.1333 114.072 40.2C113.818 40.2533 113.565 40.34 113.312 40.46C113.525 40.5933 113.692 40.7667 113.812 40.98C113.945 41.1933 114.012 41.4333 114.012 41.7C114.012 42.1 113.878 42.4333 113.612 42.7C113.345 42.9667 113.012 43.1 112.612 43.1C112.212 43.1 111.878 42.9667 111.612 42.7C111.345 42.42 111.212 42.0533 111.212 41.6C111.212 41.1733 111.352 40.8133 111.632 40.52C111.925 40.2133 112.305 39.9667 112.772 39.78C113.238 39.58 113.738 39.4333 114.272 39.34C114.818 39.2467 115.338 39.2 115.832 39.2C116.512 39.2 117.152 39.3 117.752 39.5C118.365 39.7 118.858 40.0467 119.232 40.54C119.618 41.02 119.812 41.7067 119.812 42.6V46.92C119.812 47.1067 119.858 47.2867 119.952 47.46C120.045 47.62 120.198 47.7 120.412 47.7C120.558 47.7 120.692 47.66 120.812 47.58C120.945 47.4867 121.065 47.3733 121.172 47.24L121.712 47.7C121.552 47.9267 121.358 48.16 121.132 48.4C120.918 48.6267 120.638 48.82 120.292 48.98C119.945 49.1267 119.492 49.2 118.932 49.2ZM114.212 49.2C113.158 49.2 112.292 48.9467 111.612 48.44C110.945 47.9333 110.612 47.2533 110.612 46.4C110.612 45.56 110.945 44.8867 111.612 44.38C112.278 43.86 113.145 43.6 114.212 43.6C114.958 43.6 115.538 43.7133 115.952 43.94C116.378 44.1533 116.698 44.3733 116.912 44.6V45.56C116.632 45.2267 116.325 44.98 115.992 44.82C115.658 44.6467 115.325 44.56 114.992 44.56C114.498 44.56 114.125 44.7333 113.872 45.08C113.632 45.4133 113.512 45.8533 113.512 46.4C113.512 46.9333 113.632 47.3733 113.872 47.72C114.125 48.0667 114.498 48.24 114.992 48.24C115.325 48.24 115.658 48.16 115.992 48C116.325 47.8267 116.632 47.5733 116.912 47.24V48.2C116.698 48.4267 116.378 48.6533 115.952 48.88C115.538 49.0933 114.958 49.2 114.212 49.2ZM126.298 41.5C126.565 40.8867 126.945 40.3533 127.438 39.9C127.931 39.4333 128.585 39.2 129.398 39.2C129.811 39.2 130.151 39.2867 130.418 39.46C130.685 39.6333 130.878 39.8533 130.998 40.12C131.131 40.3733 131.198 40.6267 131.198 40.88C131.198 41.3467 131.045 41.7467 130.738 42.08C130.431 42.4133 130.018 42.58 129.498 42.58C129.031 42.58 128.631 42.4133 128.298 42.08C127.965 41.7467 127.798 41.3467 127.798 40.88C127.798 40.6267 127.851 40.4067 127.958 40.22C128.078 40.02 128.185 39.8733 128.278 39.78V40.5C128.025 40.58 127.798 40.7067 127.598 40.88C127.411 41.04 127.218 41.2933 127.018 41.64C126.831 41.9733 126.591 42.46 126.298 43.1V41.5ZM126.298 48.1L126.498 48.3H128.098V49H122.198V48.3H123.198L123.398 48.1V40.3L123.198 40.1H122.198V39.4C122.545 39.4 122.938 39.4 123.378 39.4C123.831 39.3867 124.278 39.3667 124.718 39.34C125.158 39.3 125.551 39.2533 125.898 39.2L126.098 39.4V41.5H126.298V48.1ZM138.465 46.96L139.005 47.42C138.685 47.9933 138.319 48.4333 137.905 48.74C137.492 49.0467 136.952 49.2 136.285 49.2C135.712 49.2 135.165 49.0867 134.645 48.86C134.139 48.62 133.719 48.2533 133.385 47.76C133.065 47.2667 132.905 46.6467 132.905 45.9V40.3L132.705 40.1H131.105V39.4C132.105 39.2 132.972 38.7667 133.705 38.1C134.439 37.4333 134.905 36.6 135.105 35.6H135.805V39.4H138.805V40.1H135.965L135.805 40.3V46.42C135.805 46.8467 135.899 47.2 136.085 47.48C136.285 47.76 136.565 47.9 136.925 47.9C137.152 47.9 137.399 47.8333 137.665 47.7C137.932 47.5533 138.199 47.3067 138.465 46.96ZM140.104 49V48.3H141.104L141.304 48.1V40.3L141.104 40.1H140.104V39.4C140.451 39.4 140.864 39.4 141.344 39.4C141.824 39.3867 142.297 39.3667 142.764 39.34C143.244 39.3 143.657 39.2533 144.004 39.2L144.204 39.4V48.1L144.404 48.3H145.404V49H140.104ZM142.724 38.2C142.271 38.2 141.871 38.0333 141.524 37.7C141.191 37.3533 141.024 36.9533 141.024 36.5C141.024 36.0333 141.191 35.6333 141.524 35.3C141.871 34.9667 142.271 34.8 142.724 34.8C143.191 34.8 143.591 34.9667 143.924 35.3C144.257 35.6333 144.424 36.0333 144.424 36.5C144.424 36.9533 144.257 37.3533 143.924 37.7C143.591 38.0333 143.191 38.2 142.724 38.2ZM150.888 41.5C151.154 40.8867 151.534 40.3533 152.028 39.9C152.521 39.4333 153.174 39.2 153.988 39.2C154.401 39.2 154.741 39.2867 155.008 39.46C155.274 39.6333 155.468 39.8533 155.588 40.12C155.721 40.3733 155.788 40.6267 155.788 40.88C155.788 41.3467 155.634 41.7467 155.328 42.08C155.021 42.4133 154.608 42.58 154.088 42.58C153.621 42.58 153.221 42.4133 152.888 42.08C152.554 41.7467 152.388 41.3467 152.388 40.88C152.388 40.6267 152.441 40.4067 152.548 40.22C152.668 40.02 152.774 39.8733 152.868 39.78V40.5C152.614 40.58 152.388 40.7067 152.188 40.88C152.001 41.04 151.808 41.2933 151.608 41.64C151.421 41.9733 151.181 42.46 150.888 43.1V41.5ZM150.888 48.1L151.088 48.3H152.688V49H146.788V48.3H147.788L147.988 48.1V40.3L147.788 40.1H146.788V39.4C147.134 39.4 147.528 39.4 147.968 39.4C148.421 39.3867 148.868 39.3667 149.308 39.34C149.748 39.3 150.141 39.2533 150.488 39.2L150.688 39.4V41.5H150.888V48.1Z" fill="#FCF75E"/>
<path d="M188.011 31H149.989L169 0.935547L188.011 31Z" fill="#0A0717" stroke="#FCF75E"/>
<rect x="142" y="21" width="48" height="16" rx="8" fill="#0A0717"/>
<path d="M87 72.0625C87 68.5032 87 66.7235 87.7037 65.3689C88.2966 64.2274 89.2274 63.2966 90.3689 62.7037C91.7235 62 93.5032 62 97.0625 62H106.938C110.497 62 112.276 62 113.631 62.7037C114.773 63.2966 115.703 64.2274 116.296 65.3689C117 66.7235 117 68.5032 117 72.0625V81.9375C117 85.4968 117 87.2765 116.296 88.6311C115.703 89.7726 114.773 90.7034 113.631 91.2963C112.276 92 110.497 92 106.938 92H97.0625C93.5032 92 91.7235 92 90.3689 91.2963C89.2274 90.7034 88.2966 89.7726 87.7037 88.6311C87 87.2765 87 85.4968 87 81.9375V72.0625Z" fill="#1EA1F2"/>
<path fill-rule="evenodd" clip-rule="evenodd" d="M110.327 73.3452C110.334 73.5325 110.337 73.7198 110.337 73.9072C110.337 79.5881 106.34 86.1464 99.0325 86.1464C96.7877 86.1464 94.7004 85.431 92.9417 84.213C93.2525 84.2471 93.5683 84.2727 93.8888 84.2727C95.7501 84.2727 97.4644 83.5827 98.8242 82.4243C97.0857 82.3988 95.6177 81.1468 95.1114 79.4433C95.3544 79.4945 95.6047 79.5201 95.8607 79.5201C96.2217 79.5201 96.5721 79.469 96.908 79.3668C95.0888 78.975 93.7185 77.2376 93.7185 75.1509C93.7185 75.1253 93.7185 75.1168 93.7185 75.0997C94.2546 75.4149 94.8683 75.6107 95.52 75.6362C94.4525 74.8612 93.7507 73.541 93.7507 72.0505C93.7507 71.267 93.9462 70.5259 94.2901 69.8871C96.2491 72.4934 99.1779 74.2054 102.48 74.3842C102.412 74.0691 102.377 73.737 102.377 73.4048C102.377 71.0286 104.156 69.1036 106.351 69.1036C107.493 69.1036 108.525 69.6233 109.25 70.4579C110.156 70.2706 111.006 69.9129 111.775 69.4189C111.477 70.4239 110.848 71.2669 110.026 71.795C110.83 71.6928 111.597 71.463 112.308 71.1223C111.775 71.9825 111.103 72.7404 110.327 73.3452Z" fill="white"/>
<path d="M87 107.062C87 103.503 87 101.724 87.7037 100.369C88.2966 99.2274 89.2274 98.2966 90.3689 97.7037C91.7235 97 93.5032 97 97.0625 97H106.938C110.497 97 112.276 97 113.631 97.7037C114.773 98.2966 115.703 99.2274 116.296 100.369C117 101.724 117 103.503 117 107.062V116.938C117 120.497 117 122.276 116.296 123.631C115.703 124.773 114.773 125.703 113.631 126.296C112.276 127 110.497 127 106.938 127H97.0625C93.5032 127 91.7235 127 90.3689 126.296C89.2274 125.703 88.2966 124.773 87.7037 123.631C87 122.276 87 120.497 87 116.938V107.062Z" fill="url(#paint0_linear_112_650)"/>
<path fill-rule="evenodd" clip-rule="evenodd" d="M102.871 101.12C105.527 101.251 108.001 102.346 109.891 104.237C111.907 106.254 113.016 108.936 113.015 111.787C113.013 117.671 108.223 122.459 102.338 122.459H102.333C100.546 122.458 98.7905 122.01 97.231 121.16L91.5707 122.644L93.0855 117.114C92.1511 115.495 91.6594 113.66 91.6602 111.779C91.6626 105.894 96.4525 101.107 102.338 101.107L102.871 101.12ZM97.4932 119.228L97.8173 119.42C99.1799 120.228 100.742 120.656 102.334 120.657H102.338C107.229 120.657 111.21 116.677 111.212 111.786C111.213 109.416 110.291 107.188 108.616 105.511C106.94 103.834 104.712 102.91 102.341 102.91C97.4461 102.91 93.4649 106.889 93.463 111.779C93.4623 113.455 93.9315 115.088 94.8199 116.5L95.0309 116.835L94.1343 120.109L97.4932 119.228ZM107.717 114.325C107.65 114.214 107.473 114.147 107.206 114.013C106.939 113.88 105.627 113.235 105.383 113.146C105.138 113.057 104.96 113.012 104.782 113.279C104.605 113.546 104.093 114.147 103.938 114.325C103.782 114.503 103.626 114.525 103.36 114.392C103.093 114.258 102.233 113.976 101.214 113.068C100.421 112.361 99.8856 111.488 99.73 111.221C99.5744 110.954 99.7134 110.809 99.847 110.677C99.967 110.557 100.114 110.365 100.247 110.209C100.381 110.054 100.425 109.942 100.514 109.764C100.603 109.587 100.558 109.431 100.492 109.297C100.425 109.164 99.8915 107.851 99.6692 107.317C99.4526 106.797 99.2326 106.868 99.0689 106.86C98.9134 106.852 98.7354 106.85 98.5576 106.85C98.3797 106.85 98.0907 106.917 97.8461 107.184C97.6016 107.451 96.9123 108.096 96.9123 109.408C96.9123 110.721 97.8684 111.989 98.0017 112.167C98.1351 112.345 99.883 115.038 102.559 116.193C103.196 116.468 103.693 116.632 104.08 116.755C104.719 116.958 105.301 116.93 105.761 116.861C106.273 116.784 107.339 116.216 107.561 115.593C107.784 114.97 107.784 114.436 107.717 114.325Z" fill="white"/>
<g clip-path="url(#clip0_112_650)">
<path d="M43.0171 107.062C43.0171 103.503 43.0171 101.724 43.7208 100.369C44.3137 99.2274 45.2445 98.2966 46.386 97.7037C47.7406 97 49.5203 97 53.0796 97H62.9546C66.5139 97 68.2936 97 69.6482 97.7037C70.7897 98.2966 71.7205 99.2274 72.3134 100.369C73.0171 101.724 73.0171 103.503 73.0171 107.062V116.938C73.0171 120.497 73.0171 122.276 72.3134 123.631C71.7205 124.773 70.7897 125.703 69.6482 126.296C68.2936 127 66.5139 127 62.9546 127H53.0796C49.5203 127 47.7406 127 46.386 126.296C45.2445 125.703 44.3137 124.773 43.7208 123.631C43.0171 122.276 43.0171 120.497 43.0171 116.938V107.062Z" fill="url(#paint1_radial_112_650)"/>
<path d="M43.0171 107.062C43.0171 103.503 43.0171 101.724 43.7208 100.369C44.3137 99.2274 45.2445 98.2966 46.386 97.7037C47.7406 97 49.5203 97 53.0796 97H62.9546C66.5139 97 68.2936 97 69.6482 97.7037C70.7897 98.2966 71.7205 99.2274 72.3134 100.369C73.0171 101.724 73.0171 103.503 73.0171 107.062V116.938C73.0171 120.497 73.0171 122.276 72.3134 123.631C71.7205 124.773 70.7897 125.703 69.6482 126.296C68.2936 127 66.5139 127 62.9546 127H53.0796C49.5203 127 47.7406 127 46.386 126.296C45.2445 125.703 44.3137 124.773 43.7208 123.631C43.0171 122.276 43.0171 120.497 43.0171 116.938V107.062Z" fill="url(#paint2_radial_112_650)"/>
<path d="M58.0005 101.091C55.0379 101.091 54.666 101.104 53.5024 101.157C52.3411 101.21 51.5484 101.394 50.8548 101.664C50.1373 101.942 49.5287 102.315 48.9224 102.922C48.3156 103.528 47.9428 104.137 47.6633 104.854C47.3929 105.548 47.2088 106.341 47.1565 107.502C47.1045 108.665 47.0908 109.037 47.0908 112C47.0908 114.963 47.104 115.333 47.1567 116.497C47.2101 117.658 47.394 118.451 47.6635 119.145C47.9424 119.862 48.3151 120.471 48.9217 121.077C49.5278 121.684 50.1364 122.058 50.8534 122.336C51.5475 122.606 52.3404 122.79 53.5015 122.843C54.6651 122.896 55.0367 122.909 57.9991 122.909C60.962 122.909 61.3327 122.896 62.4963 122.843C63.6576 122.79 64.4512 122.606 65.1453 122.336C65.8625 122.058 66.4702 121.684 67.0764 121.077C67.6832 120.471 68.0559 119.862 68.3354 119.145C68.6036 118.451 68.7877 117.658 68.8422 116.497C68.8945 115.334 68.9081 114.963 68.9081 112C68.9081 109.037 68.8945 108.665 68.8422 107.502C68.7877 106.34 68.6036 105.548 68.3354 104.854C68.0559 104.137 67.6832 103.528 67.0764 102.922C66.4696 102.315 65.8628 101.942 65.1446 101.664C64.4492 101.394 63.656 101.21 62.4947 101.157C61.3311 101.104 60.9606 101.091 57.9971 101.091H58.0005ZM57.0219 103.057C57.3123 103.056 57.6364 103.057 58.0005 103.057C60.9131 103.057 61.2583 103.067 62.4085 103.12C63.4721 103.168 64.0494 103.346 64.4339 103.495C64.943 103.693 65.306 103.929 65.6875 104.311C66.0693 104.693 66.3057 105.057 66.5039 105.566C66.6532 105.95 66.8311 106.527 66.8795 107.591C66.9318 108.741 66.9432 109.086 66.9432 111.997C66.9432 114.909 66.9318 115.254 66.8795 116.404C66.8309 117.468 66.6532 118.045 66.5039 118.429C66.3061 118.938 66.0693 119.301 65.6875 119.682C65.3057 120.064 64.9432 120.301 64.4339 120.498C64.0499 120.648 63.4721 120.826 62.4085 120.874C61.2586 120.927 60.9131 120.938 58.0005 120.938C55.0876 120.938 54.7424 120.927 53.5924 120.874C52.5288 120.825 51.9516 120.647 51.5668 120.498C51.0577 120.3 50.6941 120.064 50.3123 119.682C49.9305 119.3 49.6942 118.938 49.496 118.428C49.3467 118.044 49.1687 117.467 49.1203 116.403C49.068 115.253 49.0576 114.908 49.0576 111.995C49.0576 109.082 49.068 108.738 49.1203 107.588C49.1689 106.524 49.3467 105.947 49.496 105.562C49.6937 105.053 49.9305 104.69 50.3123 104.308C50.6941 103.926 51.0577 103.69 51.5668 103.492C51.9514 103.342 52.5288 103.164 53.5924 103.115C54.5988 103.07 54.9888 103.056 57.0219 103.054V103.057ZM63.8235 104.868C63.1008 104.868 62.5144 105.454 62.5144 106.177C62.5144 106.9 63.1008 107.486 63.8235 107.486C64.5462 107.486 65.1325 106.9 65.1325 106.177C65.1325 105.454 64.5462 104.868 63.8235 104.868V104.868ZM58.0005 106.398C54.9067 106.398 52.3984 108.906 52.3984 112C52.3984 115.094 54.9067 117.601 58.0005 117.601C61.0943 117.601 63.6017 115.094 63.6017 112C63.6017 108.906 61.094 106.398 58.0003 106.398H58.0005ZM58.0005 108.364C60.0086 108.364 61.6367 109.992 61.6367 112C61.6367 114.008 60.0086 115.636 58.0005 115.636C55.9921 115.636 54.3642 114.008 54.3642 112C54.3642 109.992 55.9921 108.364 58.0005 108.364Z" fill="white"/>
</g>
<path d="M43 72.0625C43 68.5032 43 66.7235 43.7037 65.3689C44.2966 64.2274 45.2274 63.2966 46.3689 62.7037C47.7235 62 49.5032 62 53.0625 62H62.9375C66.4968 62 68.2765 62 69.6311 62.7037C70.7726 63.2966 71.7034 64.2274 72.2963 65.3689C73 66.7235 73 68.5032 73 72.0625V81.9375C73 85.4968 73 87.2765 72.2963 88.6311C71.7034 89.7726 70.7726 90.7034 69.6311 91.2963C68.2765 92 66.4968 92 62.9375 92H53.0625C49.5032 92 47.7235 92 46.3689 91.2963C45.2274 90.7034 44.2966 89.7726 43.7037 88.6311C43 87.2765 43 85.4968 43 81.9375V72.0625Z" fill="url(#paint3_linear_112_650)"/>
<path d="M63.8333 81.1666L64.5 77H60.5V74.0833C60.5 72.9166 60.9167 72 62.75 72H64.6667V68.1666C63.5833 68 62.4167 67.8333 61.3333 67.8333C57.9167 67.8333 55.5 69.9166 55.5 73.6666V77H51.75V81.1666H55.5V92C57.1667 92 58.8333 92 60.5 92V81.1666H63.8333Z" fill="white"/>
<g clip-path="url(#clip1_112_650)">
<path d="M131.017 107.062C131.017 103.503 131.017 101.724 131.721 100.369C132.314 99.2274 133.244 98.2966 134.386 97.7037C135.741 97 137.52 97 141.08 97H150.955C154.514 97 156.294 97 157.648 97.7037C158.79 98.2966 159.72 99.2274 160.313 100.369C161.017 101.724 161.017 103.503 161.017 107.062V116.938C161.017 120.497 161.017 122.276 160.313 123.631C159.72 124.773 158.79 125.703 157.648 126.296C156.294 127 154.514 127 150.955 127H141.08C137.52 127 135.741 127 134.386 126.296C133.244 125.703 132.314 124.773 131.721 123.631C131.017 122.276 131.017 120.497 131.017 116.938V107.062Z" fill="#5865F2"/>
<path d="M153.797 104.847C152.363 104.189 150.825 103.704 149.217 103.426C149.188 103.421 149.159 103.434 149.144 103.461C148.946 103.813 148.727 104.272 148.574 104.632C146.844 104.373 145.124 104.373 143.43 104.632C143.276 104.264 143.049 103.813 142.851 103.461C142.835 103.435 142.806 103.422 142.777 103.426C141.17 103.703 139.632 104.188 138.197 104.847C138.185 104.852 138.174 104.861 138.167 104.873C135.25 109.23 134.451 113.481 134.843 117.679C134.845 117.7 134.856 117.719 134.872 117.732C136.797 119.145 138.661 120.003 140.491 120.572C140.52 120.581 140.551 120.57 140.57 120.546C141.002 119.955 141.388 119.332 141.719 118.676C141.738 118.638 141.72 118.593 141.68 118.577C141.068 118.345 140.485 118.062 139.925 117.741C139.88 117.715 139.877 117.651 139.918 117.621C140.036 117.533 140.154 117.441 140.266 117.348C140.287 117.331 140.315 117.327 140.339 117.338C144.021 119.019 148.008 119.019 151.647 117.338C151.67 117.326 151.699 117.33 151.72 117.347C151.833 117.44 151.951 117.533 152.07 117.621C152.11 117.651 152.108 117.715 152.063 117.741C151.503 118.068 150.92 118.345 150.307 118.576C150.267 118.592 150.25 118.638 150.269 118.676C150.607 119.331 150.993 119.954 151.418 120.545C151.435 120.57 151.467 120.581 151.497 120.572C153.335 120.003 155.199 119.145 157.124 117.732C157.141 117.719 157.151 117.701 157.153 117.68C157.622 112.827 156.367 108.611 153.826 104.873C153.82 104.861 153.81 104.852 153.797 104.847ZM142.269 115.123C141.16 115.123 140.247 114.105 140.247 112.855C140.247 111.605 141.142 110.588 142.269 110.588C143.404 110.588 144.309 111.614 144.291 112.855C144.291 114.105 143.395 115.123 142.269 115.123ZM149.745 115.123C148.636 115.123 147.723 114.105 147.723 112.855C147.723 111.605 148.619 110.588 149.745 110.588C150.88 110.588 151.785 111.614 151.767 112.855C151.767 114.105 150.88 115.123 149.745 115.123Z" fill="white"/>
</g>
<path d="M131 72.0625C131 68.5032 131 66.7235 131.704 65.3689C132.297 64.2274 133.227 63.2966 134.369 62.7037C135.724 62 137.503 62 141.062 62H150.938C154.497 62 156.276 62 157.631 62.7037C158.773 63.2966 159.703 64.2274 160.296 65.3689C161 66.7235 161 68.5032 161 72.0625V81.9375C161 85.4968 161 87.2765 160.296 88.6311C159.703 89.7726 158.773 90.7034 157.631 91.2963C156.276 92 154.497 92 150.938 92H141.062C137.503 92 135.724 92 134.369 91.2963C133.227 90.7034 132.297 89.7726 131.704 88.6311C131 87.2765 131 85.4968 131 81.9375V72.0625Z" fill="white"/>
<path d="M141.062 62.25H150.938C152.721 62.25 154.044 62.25 155.091 62.3369C156.134 62.4236 156.88 62.5956 157.516 62.9258C158.611 63.495 159.505 64.3885 160.074 65.4844C160.404 66.1199 160.576 66.866 160.663 67.9092C160.75 68.9556 160.75 70.2786 160.75 72.0625V81.9375C160.75 83.7214 160.75 85.0444 160.663 86.0908C160.576 87.134 160.404 87.8801 160.074 88.5156C159.505 89.6115 158.611 90.505 157.516 91.0742C156.88 91.4044 156.134 91.5764 155.091 91.6631C154.044 91.75 152.721 91.75 150.938 91.75H141.062C139.279 91.75 137.956 91.75 136.909 91.6631C135.866 91.5764 135.12 91.4044 134.484 91.0742C133.389 90.505 132.495 89.6115 131.926 88.5156C131.596 87.8801 131.424 87.134 131.337 86.0908C131.25 85.0444 131.25 83.7214 131.25 81.9375V72.0625C131.25 70.2786 131.25 68.9556 131.337 67.9092C131.424 66.866 131.596 66.1199 131.926 65.4844C132.495 64.3885 133.389 63.495 134.484 62.9258C135.12 62.5956 135.866 62.4236 136.909 62.3369C137.956 62.25 139.279 62.25 141.062 62.25Z" stroke="black" stroke-opacity="0.15" stroke-width="0.5"/>
<path fill-rule="evenodd" clip-rule="evenodd" d="M156.2 77.2415C156.2 76.4881 156.132 75.7637 156.007 75.0682H146V79.1782H151.718C151.472 80.5063 150.723 81.6316 149.598 82.385V85.0509H153.032C155.041 83.2012 156.2 80.4773 156.2 77.2415Z" fill="#4285F4"/>
<path fill-rule="evenodd" clip-rule="evenodd" d="M146 87.6251C148.869 87.6251 151.274 86.6736 153.032 85.0509L149.598 82.385C148.647 83.0225 147.43 83.3992 146 83.3992C143.233 83.3992 140.89 81.5302 140.055 79.0188H136.505V81.7716C138.253 85.2441 141.847 87.6251 146 87.6251Z" fill="#34A853"/>
<path fill-rule="evenodd" clip-rule="evenodd" d="M140.055 79.0188C139.842 78.3813 139.722 77.7003 139.722 77.0001C139.722 76.2998 139.842 75.6188 140.055 74.9813V72.2285H136.505C135.786 73.6628 135.375 75.2856 135.375 77.0001C135.375 78.7145 135.786 80.3373 136.505 81.7717L140.055 79.0188Z" fill="#FBBC05"/>
<path fill-rule="evenodd" clip-rule="evenodd" d="M146 70.6009C147.56 70.6009 148.961 71.137 150.062 72.1898L153.109 69.1424C151.269 67.4279 148.864 66.3751 146 66.3751C141.847 66.3751 138.253 68.756 136.505 72.2285L140.055 74.9813C140.89 72.47 143.233 70.6009 146 70.6009Z" fill="#EA4335"/>
<defs>
<linearGradient id="paint0_linear_112_650" x1="102" y1="127" x2="102" y2="97" gradientUnits="userSpaceOnUse">
<stop stop-color="#25CF43"/>
<stop offset="1" stop-color="#61FD7D"/>
</linearGradient>
<radialGradient id="paint1_radial_112_650" cx="0" cy="0" r="1" gradientUnits="userSpaceOnUse" gradientTransform="translate(50.9859 129.311) rotate(-90) scale(29.7322 27.6533)">
<stop stop-color="#FFDD55"/>
<stop offset="0.1" stop-color="#FFDD55"/>
<stop offset="0.5" stop-color="#FF543E"/>
<stop offset="1" stop-color="#C837AB"/>
</radialGradient>
<radialGradient id="paint2_radial_112_650" cx="0" cy="0" r="1" gradientTransform="matrix(2.60861 13.0319 -53.7169 10.7586 37.9919 99.1611)" gradientUnits="userSpaceOnUse">
<stop stop-color="#3771C8"/>
<stop offset="0.128" stop-color="#3771C8"/>
<stop offset="1" stop-color="#6600FF" stop-opacity="0"/>
</radialGradient>
<linearGradient id="paint3_linear_112_650" x1="58" y1="91.1235" x2="58" y2="62" gradientUnits="userSpaceOnUse">
<stop stop-color="#0062E0"/>
<stop offset="1" stop-color="#19AFFF"/>
</linearGradient>
<clipPath id="clip0_112_650">
<rect width="30" height="30" fill="white" transform="translate(43 97)"/>
</clipPath>
<clipPath id="clip1_112_650">
<rect width="30" height="30" fill="white" transform="translate(131 97)"/>
</clipPath>
</defs>
</svg>
