<svg width="40" height="40" viewBox="0 0 40 40" fill="none" xmlns="http://www.w3.org/2000/svg">
<path d="M20 3.33325C29.1667 3.33325 36.6667 10.8333 36.6667 19.9999C36.6667 29.1666 29.1667 36.6666 20 36.6666C10.8334 36.6666 3.33335 29.1666 3.33335 19.9999C3.33335 10.8333 10.8334 3.33325 20 3.33325ZM20 33.3333C27.3334 33.3333 33.3334 27.3333 33.3334 19.9999C33.3334 12.6666 27.3334 6.66659 20 6.66659C12.6667 6.66659 6.66669 12.6666 6.66669 19.9999C6.66669 27.3333 12.6667 33.3333 20 33.3333Z" fill="#A61818"/>
<path d="M17.1667 13.8333C17.8333 13.1666 18.8333 13.1666 19.5 13.8333L24.5 18.8333C25.1667 19.4999 25.1667 20.4999 24.5 21.1666L19.5 26.1666C19.1667 26.4999 18.6667 26.6666 18.3333 26.6666C18 26.6666 17.5 26.4999 17.1667 26.1666C16.5 25.4999 16.5 24.4999 17.1667 23.8333L21 19.9999L17.1667 16.1666C16.5 15.4999 16.5 14.4999 17.1667 13.8333Z" fill="#A61818"/>
</svg>
