<svg width="30" height="30" viewBox="0 0 30 30" fill="none" xmlns="http://www.w3.org/2000/svg">
<rect width="30" height="30" rx="4" fill="#0A0717"/>
<path d="M21.0065 17.0323C20.4157 17.0362 19.833 17.171 19.3005 17.4269C18.768 17.6828 18.2987 18.0535 17.9265 18.5123L12.8265 16.1623C13.0663 15.4281 13.0663 14.6366 12.8265 13.9023L17.9265 11.5523C18.5281 12.2783 19.3668 12.7684 20.2946 12.9362C21.2225 13.1039 22.1797 12.9386 22.9974 12.4692C23.8152 11.9999 24.4409 11.2568 24.764 10.3711C25.0872 9.48535 25.0871 8.51392 24.7638 7.62825C24.4405 6.74257 23.8146 5.99958 22.9968 5.53041C22.179 5.06123 21.2217 4.89603 20.2939 5.06396C19.3662 5.2319 18.5275 5.72216 17.926 6.44824C17.3245 7.17431 16.9989 8.08952 17.0065 9.03234C17.0095 9.27057 17.0329 9.50811 17.0765 9.74234L11.7965 12.1723C11.2336 11.6219 10.5207 11.2499 9.7473 11.1028C8.97386 10.9557 8.17422 11.0401 7.44855 11.3455C6.72288 11.6508 6.10346 12.1636 5.6679 12.8194C5.23234 13.4752 5 14.245 5 15.0323C5 15.8196 5.23234 16.5894 5.6679 17.2453C6.10346 17.9011 6.72288 18.4138 7.44855 18.7192C8.17422 19.0246 8.97386 19.109 9.7473 18.9619C10.5207 18.8148 11.2336 18.4428 11.7965 17.8923L17.0765 20.3223C17.0329 20.5566 17.0095 20.7941 17.0065 21.0323C17.0065 21.8235 17.2411 22.5968 17.6806 23.2546C18.1201 23.9124 18.7449 24.4251 19.4758 24.7279C20.2067 25.0306 21.0109 25.1098 21.7869 24.9555C22.5628 24.8011 23.2755 24.4202 23.8349 23.8608C24.3943 23.3014 24.7753 22.5886 24.9296 21.8127C25.084 21.0368 25.0048 20.2325 24.702 19.5016C24.3993 18.7707 23.8866 18.146 23.2288 17.7065C22.571 17.2669 21.7976 17.0323 21.0065 17.0323ZM21.0065 7.03234C21.4021 7.03234 21.7887 7.14964 22.1176 7.3694C22.4465 7.58916 22.7029 7.90152 22.8543 8.26697C23.0056 8.63243 23.0452 9.03456 22.9681 9.42252C22.8909 9.81048 22.7004 10.1668 22.4207 10.4466C22.141 10.7263 21.7846 10.9167 21.3967 10.9939C21.0087 11.0711 20.6066 11.0315 20.2411 10.8801C19.8757 10.7287 19.5633 10.4724 19.3436 10.1435C19.1238 9.81458 19.0065 9.4279 19.0065 9.03234C19.0065 8.50191 19.2172 7.9932 19.5923 7.61813C19.9674 7.24305 20.4761 7.03234 21.0065 7.03234ZM9.0065 17.0323C8.61094 17.0323 8.22426 16.915 7.89536 16.6953C7.56646 16.4755 7.31011 16.1632 7.15874 15.7977C7.00736 15.4323 6.96776 15.0301 7.04493 14.6422C7.1221 14.2542 7.31258 13.8978 7.59228 13.6181C7.87199 13.3384 8.22836 13.1479 8.61632 13.0708C9.00428 12.9936 9.40641 13.0332 9.77186 13.1846C10.1373 13.336 10.4497 13.5923 10.6694 13.9212C10.8892 14.2501 11.0065 14.6368 11.0065 15.0323C11.0065 15.5628 10.7958 16.0715 10.4207 16.4466C10.0456 16.8216 9.53693 17.0323 9.0065 17.0323ZM21.0065 23.0323C20.6109 23.0323 20.2243 22.915 19.8954 22.6953C19.5665 22.4755 19.3101 22.1632 19.1587 21.7977C19.0074 21.4323 18.9678 21.0301 19.0449 20.6422C19.1221 20.2542 19.3126 19.8978 19.5923 19.6181C19.872 19.3384 20.2284 19.1479 20.6163 19.0708C21.0043 18.9936 21.4064 19.0332 21.7719 19.1846C22.1373 19.336 22.4497 19.5923 22.6694 19.9212C22.8892 20.2501 23.0065 20.6368 23.0065 21.0323C23.0065 21.5628 22.7958 22.0715 22.4207 22.4466C22.0456 22.8216 21.5369 23.0323 21.0065 23.0323Z" fill="#F2EDED"/>
</svg>
