<svg width="30" height="30" viewBox="0 0 30 30" fill="none" xmlns="http://www.w3.org/2000/svg">
<rect width="30" height="30" rx="4" fill="#0D0A1F"/>
<path d="M22.6364 4.5H19.7727C19.5196 4.5 19.2768 4.60057 19.0978 4.77958C18.9187 4.95859 18.8182 5.20138 18.8182 5.45455C18.8182 5.70771 18.9187 5.9505 19.0978 6.12951C19.2768 6.30852 19.5196 6.40909 19.7727 6.40909H22.6364C22.8895 6.40909 23.1323 6.50966 23.3113 6.68867C23.4903 6.86768 23.5909 7.11048 23.5909 7.36364V10.2273C23.5909 10.4804 23.6915 10.7232 23.8705 10.9022C24.0495 11.0813 24.2923 11.1818 24.5455 11.1818C24.7986 11.1818 25.0414 11.0813 25.2204 10.9022C25.3994 10.7232 25.5 10.4804 25.5 10.2273V7.36364C25.5 5.78219 24.2178 4.5 22.6364 4.5ZM10.2273 4.5H7.36364C5.78219 4.5 4.5 5.78219 4.5 7.36364V10.2273C4.5 10.4804 4.60057 10.7232 4.77958 10.9022C4.95859 11.0813 5.20138 11.1818 5.45455 11.1818C5.70771 11.1818 5.9505 11.0813 6.12951 10.9022C6.30852 10.7232 6.40909 10.4804 6.40909 10.2273V7.36364C6.40909 7.11048 6.50966 6.86768 6.68867 6.68867C6.86768 6.50966 7.11048 6.40909 7.36364 6.40909H10.2273C10.4804 6.40909 10.7232 6.30852 10.9022 6.12951C11.0813 5.9505 11.1818 5.70771 11.1818 5.45455C11.1818 5.20138 11.0813 4.95859 10.9022 4.77958C10.7232 4.60057 10.4804 4.5 10.2273 4.5ZM24.5455 18.8182C24.2923 18.8182 24.0495 18.9187 23.8705 19.0978C23.6915 19.2768 23.5909 19.5196 23.5909 19.7727V22.6364C23.5909 23.1637 23.1637 23.5909 22.6364 23.5909H19.7727C19.5196 23.5909 19.2768 23.6915 19.0978 23.8705C18.9187 24.0495 18.8182 24.2923 18.8182 24.5455C18.8182 24.7986 18.9187 25.0414 19.0978 25.2204C19.2768 25.3994 19.5196 25.5 19.7727 25.5H22.6364C24.2178 25.5 25.5 24.2178 25.5 22.6364V19.7727C25.5 19.5196 25.3994 19.2768 25.2204 19.0978C25.0414 18.9187 24.7986 18.8182 24.5455 18.8182ZM10.2273 23.5909H7.36364C7.11048 23.5909 6.86768 23.4903 6.68867 23.3113C6.50966 23.1323 6.40909 22.8895 6.40909 22.6364V19.7727C6.41109 19.6461 6.38789 19.5204 6.34082 19.4028C6.29375 19.2853 6.22377 19.1783 6.13495 19.088C6.04612 18.9978 5.94023 18.9261 5.82344 18.8772C5.70664 18.8283 5.58129 18.8031 5.45466 18.8031C5.32804 18.8031 5.20268 18.8283 5.08589 18.8772C4.9691 18.9261 4.86321 18.9978 4.77438 19.088C4.68556 19.1783 4.61558 19.2853 4.56851 19.4028C4.52144 19.5204 4.49824 19.6461 4.50024 19.7727V22.6364C4.50024 24.2178 5.78243 25.5 7.36387 25.5H10.2275C10.4807 25.5 10.7235 25.3994 10.9024 25.2203C11.0814 25.0413 11.182 24.7985 11.1819 24.5453C11.1819 24.2922 11.0813 24.0494 10.9023 23.8704C10.7232 23.6914 10.4804 23.5909 10.2273 23.5909Z" fill="#F2EDED"/>
</svg>
